<svg width="64" height="64" version="1.1" viewBox="0 0 16.933 16.933" xmlns="http://www.w3.org/2000/svg">
 <g fill="none" stroke="#f60" stroke-linecap="round" stroke-linejoin="round" stroke-width=".33867">
  <g transform="matrix(-1.041 -1.041 1.041 -1.041 -1.1525 27.972)">
   <path d="m4.7483 13.749v-7.654"/>
   <path d="m4.7483 6.0949 2.2186 3.8428"/>
   <path d="m4.7483 6.0949-2.2186 3.8428"/>
  </g>
  <g transform="matrix(1.041 -1.041 1.041 1.041 -11.039 -1.1525)">
   <path d="m4.7483 13.749v-7.654"/>
   <path d="m4.7483 6.0949 2.2186 3.8428"/>
   <path d="m4.7483 6.0949-2.2186 3.8428"/>
  </g>
  <g transform="matrix(1.041 1.041 -1.041 1.041 18.086 -11.039)">
   <path d="m4.7483 13.749v-7.654"/>
   <path d="m4.7483 6.0949 2.2186 3.8428"/>
   <path d="m4.7483 6.0949-2.2186 3.8428"/>
  </g>
  <g transform="matrix(1.041 -1.041 -1.041 -1.041 18.086 27.972)">
   <path d="m4.7483 13.749v-7.654"/>
   <path d="m4.7483 6.0949 2.2186 3.8428"/>
   <path d="m4.7483 6.0949-2.2186 3.8428"/>
  </g>
 </g>
</svg>
