<svg width="790" height="1020" version="1.1" viewBox="0 0 209.02 269.88" xmlns="http://www.w3.org/2000/svg">
 <defs>
  <linearGradient id="linearGradient7245" x1="136.08" x2="136.08" y1="-762.68" y2="-719.76" gradientTransform="matrix(1.7234 0 0 1 -98.308 0)" gradientUnits="userSpaceOnUse">
   <stop stop-color="#f60" stop-opacity=".55272" offset="0"/>
   <stop stop-color="#fbff00" stop-opacity=".74441" offset="1"/>
  </linearGradient>
  <filter id="filter7683-2" x="-.22626" y="-.50557" width="1.4525" height="2.0111" color-interpolation-filters="sRGB">
   <feGaussianBlur result="fbSourceGraphic" stdDeviation="11.42914"/>
   <feColorMatrix in="fbSourceGraphic" result="fbSourceGraphicAlpha" values="0 0 0 -1 0 0 0 0 -1 0 0 0 0 -1 0 0 0 0 1 0"/>
   <feMorphology in="fbSourceGraphic" operator="dilate" radius="2.4" result="result1"/>
   <feTurbulence baseFrequency="0.09 0.028"/>
   <feColorMatrix result="result2" values="2 0 0 0 0 0 2 0 0 0 0 0 0 0 0 0 0 0 1 0"/>
   <feDisplacementMap in="result1" in2="result2" result="result4" scale="10.31941" xChannelSelector="R" yChannelSelector="G"/>
   <feFlood flood-color="rgb(255,159,54)" result="result3"/>
   <feMorphology in="result4" radius="3.8" result="result7"/>
   <feGaussianBlur in="result7" result="result7" stdDeviation="2.4"/>
   <feComposite in="result3" in2="result4" operator="in" result="result5"/>
   <feComposite in2="result7" operator="out"/>
   <feOffset dx="-4.5" dy="-7" result="result6"/>
   <feGaussianBlur result="result7" stdDeviation="4.8"/>
   <feComposite in="fbSourceGraphic" in2="result6" result="result8"/>
   <feComposite in2="result7"/>
  </filter>
  <linearGradient id="linearGradient7729" x1="3776.5" x2="3776.5" y1="897.01" y2="911.55" gradientUnits="userSpaceOnUse">
   <stop offset="0"/>
   <stop stop-color="#8b8b8b" offset="1"/>
  </linearGradient>
 </defs>
 <g transform="matrix(.99635 0 0 1.0001 -30.89 972.88)">
  <ellipse transform="matrix(.79498 0 0 .68308 28.048 -233.88)" cx="135.9" cy="-741.22" rx="60.617" ry="27.128" fill="url(#linearGradient7245)" filter="url(#filter7683-2)" style="mix-blend-mode:normal;paint-order:normal"/>
  <path transform="matrix(.26458 0 0 .26458 -863.16 -988.74)" d="m3776 203.35a380.7 380.7 0 0 0-380.7 380.7 380.7 380.7 0 0 0 163.91 312.95h433.57a380.7 380.7 0 0 0 163.91-312.95 380.7 380.7 0 0 0-380.7-380.7z" fill="#8f847d" fill-rule="evenodd" stroke="url(#linearGradient7729)" stroke-linejoin="round" stroke-width="31.495" style="paint-order:normal"/>
  <g transform="translate(28.597 -1026.3)" stroke="#333" stroke-linecap="round" stroke-linejoin="round" stroke-width="3.21">
   <path d="m145.36 126.84 11.399-42.542c-14.373-4.7543-18.478-14.31-7.8094-29.145l7.8094 29.145 21.152-5.6678-3.236-12.077-8.386 2.247 1.02 3.8069 8.1125-2.0865 2.471 8.3239-21.133 5.4535" fill="#b3b3b3"/>
   <path d="m39.852 80.163 28.399-9.2273m-31.327-2.0387 28.399-9.2273m2.2426 67.169-16.24-60.608" fill="none"/>
  </g>
  <g fill="none" stroke="#000">
   <g stroke-width="1.81">
    <path d="m46.878-789.41 16.631-12.095 24.946 26.836-16.631 19.277"/>
    <path d="m88.456-774.67 33.888 13.036-1.393 7.7937"/>
    <path d="m122.34-761.64 35.866-5.6551 5.6573 14.491"/>
   </g>
  </g>
  <g fill-rule="evenodd" stroke="#140c00" stroke-linecap="round" stroke-linejoin="round" stroke-width=".84422">
   <circle cx="84.978" cy="-774.84" r=".22037" style="paint-order:normal"/>
   <circle cx="83.388" cy="-776.35" r=".22037" style="paint-order:normal"/>
   <circle cx="118.88" cy="-759.93" r=".22037" style="paint-order:normal"/>
   <circle cx="156.68" cy="-764.28" r=".22037" style="paint-order:normal"/>
   <circle cx="51.414" cy="-789.79" r=".22037" style="paint-order:normal"/>
  </g>
  <path d="m193.41-887.04 13.036 33.888 27.712-4.9305" fill="none" stroke="#000" stroke-width="1.81"/>
  <path d="m204.9-904.09-11.491 17.054-32.621-16.686 9.0349-23.802" fill="none" stroke="#000" stroke-width="1.81"/>
  <g fill-rule="evenodd" stroke="#140c00" stroke-linecap="round" stroke-linejoin="round" stroke-width=".84422">
   <circle cx="164.37" cy="-905.45" r=".22037" style="paint-order:normal"/>
   <circle cx="196.18" cy="-887.12" r=".22037" style="paint-order:normal"/>
   <circle cx="197.41" cy="-884.77" r=".22037" style="paint-order:normal"/>
   <circle cx="227.45" cy="-859.74" r=".22037" style="paint-order:normal"/>
   <circle cx="200.72" cy="-903.57" r=".22037" style="paint-order:normal"/>
  </g>
  <g fill="#4d4d4d">
   <path d="m60.923-884.23c1.0433 1.077 1.9287 2.2924 2.8566 3.4658 2.8849 3.6487-0.6082-0.80656 2.0597 2.603 1.0537 1.335 0.50952 0.74455 1.6046 1.7966 0 0 1.4423-1.6559 1.4423-1.6559-0.92443-0.67874-0.41797-0.23874-1.421-1.4246-0.74591-0.9221-1.3144-1.6113-2.0366-2.5615-0.96917-1.275-1.8678-2.6029-2.8695-3.8535l-1.6361 1.63z"/>
   <path d="m67.703-886.33c-1.3636 1.4672-2.9356 2.7284-4.4186 4.0729-1.2494 1.1646-0.64972 0.58292-1.8019 1.7421l1.5472 1.4914c1.0482-1.1068 0.49029-0.54691 1.6802-1.6732 0.32459-0.29435 0.6441-0.59435 0.97376-0.88306 1.2857-1.126 2.6718-2.1447 3.868-3.3689l-1.8487-1.3813z"/>
   <path d="m63.398-885.54c0.49097 1.2172 0.74841 2.5133 0.96425 3.8023 0.23878 1.5312 0.71602 3.0011 1.2262 4.459 0.20103 0.59972 0.11229 0.31206 0.27004 0.86181l2.1823-0.65341c-0.20334-0.64864-0.09356-0.32631-0.32956-0.96693-0.49078-1.3247-0.95889-2.6571-1.1827-4.0583-0.24491-1.4806-0.53058-2.9588-1.0028-4.3867l-2.1278 0.94215z"/>
   <path d="m52.338-862.01c1.3508 0.73325 2.6892 1.4884 4.0319 2.2362l1.0465-1.884c-1.3489-0.73595-2.6939-1.4892-3.9484-2.3787l-1.1301 2.0265z"/>
   <path d="m58.913-865.99c-1.6132 2.2516-3.3588 4.4066-5.172 6.5005-1.1053 1.2277-0.57223 0.66393-1.5896 1.7002l1.59 1.4726c1.0184-1.1446 0.48843-0.5347 1.5849-1.8341 1.784-2.1333 3.5199-4.3091 5.3773-6.3797l-1.7906-1.4595z"/>
   <path d="m53.774-864.67c0.08052 0.078 0.16776 0.1496 0.24155 0.23393 0.22988 0.26274 0.38691 0.53767 0.56461 0.84057 0.48886 0.83328 0.92164 1.6926 1.3538 2.5559 0.68114 1.4359 1.3723 2.8679 1.9639 4.3435 0 0 2.0871-0.88366 2.0871-0.88366-0.67064-1.4884-1.4169-2.9409-2.1065-4.4204-0.14516-0.29324-0.79148-1.601-0.9418-1.8961-0.4311-0.84634-0.86235-1.7117-1.5162-2.4139l-1.6464 1.6402z"/>
   <path d="m60.491-861.65c-1.3215 0.251-2.5931 0.67753-3.8583 1.122-0.81333 0.28679-1.6365 0.50976-2.4934 0.60759-0.64328 0.0449-0.31361 0.0261-0.98909 0.0552l0.08704 2.2523c0.76649-0.0262 0.38611-8e-3 1.1412-0.054 0.1875-0.0186 0.37588-0.0298 0.56251-0.0557 0.8481-0.11769 1.648-0.43512 2.4576-0.6961 1.1675-0.43153 2.3453-0.8546 3.5913-0.99533l-0.49874-2.2359z"/>
   <path d="m212.58-839.21c0.11155 0.12411 0.23175 0.24101 0.33464 0.37233 0.85945 1.0969 1.5228 2.3463 2.1771 3.5688 0.59999 1.1211 1.1761 2.2548 1.7678 3.3802 0.70594 1.3742 1.4823 2.7095 2.2726 4.0365l1.8114-1.12c-0.81725-1.2524-1.6062-2.5222-2.2997-3.8483-1.0687-2.0299-0.71148-1.3392-1.7656-3.3905-0.81197-1.58-1.5481-3.2294-2.6621-4.629l-1.6361 1.63z"/>
   <path d="m220.98-839.26c-2.3662 1.3471-4.6002 2.9176-6.8487 4.4492-1.2625 0.86524-2.5264 1.7284-3.7896 2.5925 0 0 1.2342 1.7253 1.2342 1.7253 1.2195-0.89864 2.4451-1.789 3.6964-2.6434 1.5964-1.0718 1.3578-0.92828 2.9632-1.9411 1.037-0.6542 2.0754-1.3282 3.1821-1.8625 0.17362-0.0838 0.3545-0.15177 0.53175-0.22766l-0.96936-2.0924z"/>
   <path d="m212.26-835.28c2.0566 0.0828 4.0928 0.42177 6.123 0.73836 2.0243 0.38821 1.0469 0.19143 2.9329 0.58695l0.40562-2.06c-1.9235-0.34893-0.92581-0.16715-2.9931-0.54571-2.1484-0.39439-4.3002-0.77476-6.4685-1.0457v2.3261z"/>
   <path d="m217.71-840.25c-0.58697 2.3704-1.21 4.7312-1.7821 7.1054-0.28999 1.2658-0.61965 2.5213-0.96921 3.7718 0 0 2.0899 0.54017 2.0899 0.54017 0.30929-1.2779 0.60699-2.5584 0.90346-3.8394 0.53087-2.315 1.1435-4.6133 1.9681-6.844 0 0-2.2102-0.73396-2.2102-0.73396z"/>
   <path d="m194.03-796.2c0.22744 0.0469 0.45316 0.10305 0.68233 0.14064 0.78058 0.12803 1.341 0.16318 2.1514 0.21918 1.3891 0.096 2.7803 0.15276 4.1714 0.20985 1.0791 0.0426 2.1583 0.0822 3.2374 0.12278l0.0388-2.193c-1.0644 3e-3 -2.1289 2e-3 -3.193-0.0329-1.9372-0.0727-3.9896-0.0973-5.8885-0.51665-0.14283-0.0315-0.28166-0.0789-0.4225-0.11841l-0.77737 2.1685z"/>
   <path d="m200.35-801.05c-1.527 1.939-3.077 3.8607-4.6325 5.7774-0.88856 1.1005-1.7901 2.1915-2.7928 3.1911l1.6422 1.5145c0.96085-1.1068 1.8552-2.2667 2.7526-3.4248 1.5859-1.9838 3.2053-3.941 4.9754-5.7664l-1.9449-1.2918z"/>
   <path d="m195.67-800c0.0557 0.46899 0.076 0.78817 0.22678 1.2617 0.48402 1.5206 1.4032 3.0693 2.1872 4.456 0.80377 1.4602 1.8157 2.7957 2.5867 4.2731l1.9907-1.0808c-0.82989-1.4596-1.8913-2.7704-2.7221-4.2312-0.51643-0.91749-0.70673-1.2177-1.156-2.1646-0.37487-0.79021-0.77901-1.6221-0.78883-2.5142h-2.3246z"/>
   <path d="m69.277-846.69c1.9432 2.403 3.5808 5.0288 5.2034 7.6515 0.57722 0.97883 1.1538 1.9575 1.7517 2.9239l1.8454-1.2089c-0.64764-0.91767-1.2677-1.8533-1.8643-2.805-1.6957-2.6132-3.3593-5.2472-5.0386-7.8704l-1.8977 1.3088z"/>
   <path d="m77.333-848.02c-1.0185 0.94647-2.2009 1.6944-3.3141 2.5218-1.0158 0.75512-1.3655 1.0446-2.3344 1.814-0.30402 0.24984-0.60804 0.49968-0.91207 0.74952 0 0 1.3964 1.631 1.3964 1.631 0.28315-0.24912 0.56631-0.49824 0.84946-0.74736 0.90682-0.75104 1.2247-1.0399 2.2042-1.7409 1.1671-0.83533 2.4097-1.5632 3.5587-2.4246 0 0-1.4483-1.8036-1.4483-1.8036z"/>
   <path d="m72.907-848.86c0.02263 0.0907 0.05127 0.1802 0.06789 0.27221 0.18896 1.0462 0.24201 2.1249 0.29756 3.1835 0.07782 1.4831 0.08612 2.1991 0.12552 3.7064 0.03533 2.5423 0.02708 1.3022 0.02733 3.72l2.0391-0.02c-0.04767-2.4276-0.02741-1.1818-0.05944-3.7374-0.0078-0.68429-0.03382-3.027-0.04521-3.7551-0.01822-1.1654-0.01413-2.3445-0.13162-3.506-0.01705-0.1687-0.0492-0.33556-0.0738-0.50334l-2.2474 0.6397z"/>
   <path d="m69.161-842.19c3.2448-0.18 6.4966-0.18625 9.7454-0.18411 2.562 0.0276 1.3345 0.01 3.6824 0.0507v-2.0489c-2.3479 0.0406-1.1204 0.023-3.6824 0.0507-3.2488 2e-3 -6.5006-4e-3 -9.7454-0.18411v2.3158z"/>
   <path d="m58.943-824.83c0.21485 0.27863 0.44059 0.54924 0.64454 0.83589 2.1909 3.0791 3.965 6.4332 5.7017 9.7789 0.27496 0.53919 0.54991 1.0784 0.82487 1.6176 0 0 1.7923-0.95248 1.7923-0.95248-0.29609-0.5273-0.59218-1.0546-0.88828-1.5819-2.0522-3.7345-4.0658-7.4969-6.311-11.121l-1.7641 1.4227z"/>
   <path d="m68.205-820.28c-1.261 0.53519-2.5026 1.1144-3.7889 1.5894-0.99193 0.36628-1.7871 0.60536-2.7908 0.923-1.3437 0.40089-2.6998 0.76531-4.0714 1.059l0.53863 2.1956c1.4056-0.38064 2.7973-0.81211 4.1809-1.2653 2.1769-0.71867 4.3369-1.4814 6.4976-2.2458l-0.56607-2.2558z"/>
   <path d="m57.103-819.58c2.4661 1.0464 4.8453 2.2776 7.2122 3.5276 1.285 0.68412 2.5142 1.4618 3.7349 2.2516l1.1291-1.8067c-1.2898-0.76762-2.5838-1.5285-3.9086-2.2353-1.4368-0.76321-1.7384-0.92771-3.1782-1.6755-0.93646-0.48637-1.8821-0.95527-2.814-1.4502-0.33429-0.17753-0.65762-0.3753-0.99415-0.54858-0.23683-0.12195-0.48328-0.22439-0.72492-0.33658l-0.45642 2.2735z"/>
   <path d="m65.393-822.17c-0.0526 0.21154-0.09702 0.42526-0.15779 0.6346-0.30954 1.0663-0.73308 2.0988-1.0988 3.1463-0.40844 1.1699-0.41602 1.2211-0.78526 2.3819-0.37457 1.1944-0.6768 2.415-1.1544 3.5744 0 0 2.1321 0.7942 2.1321 0.7942 0.4246-1.224 0.71236-2.4893 1.0695-3.7337 0.28303-0.92295 0.40885-1.3698 0.73703-2.2877 0.46379-1.2971 1.0296-2.556 1.4656-3.8631l-2.208-0.64698z"/>
   <path d="m73.395-830.51c0.87435 1.3964 1.6096 2.8749 2.3916 4.3238l1.3195-0.71701c-0.81415-1.4656-1.5814-2.9548-2.32-4.4596 0 0-1.3911 0.85284-1.3911 0.85284z"/>
   <path d="m76.589-830.53c-0.10327 0.0905-0.20036 0.18857-0.3098 0.27159-1.2341 0.93623-2.7298 1.615-4.1298 2.2666l0.65414 1.3485c0.93626-0.46561 1.8748-0.92882 2.797-1.4218 0.53212-0.28442 1.1539-0.62573 1.6626-0.96336 0.16516-0.10961 0.31854-0.23588 0.47781-0.35383l-1.1521-1.1477z"/>
   <path d="m70.439-829.73c1.2931 0.69635 2.6008 1.3614 3.9266 1.994 1.5035 0.68395 3.0394 1.3034 4.6056 1.8308l0.46882-1.5085c-1.5204-0.42281-3.0027-0.9821-4.4365-1.6386-0.89236-0.43284-1.0564-0.49681-1.9142-0.97346-0.55408-0.30789-0.8714-0.5103-1.3947-0.83075-0.15353-0.094-0.30298-0.19501-0.46088-0.28153-0.12758-0.0699-0.26292-0.12473-0.39438-0.1871l-0.40027 1.5951z"/>
   <path d="m75.629-831.26c-0.67261 1.3055-1.4781 2.5386-2.1467 3.8463-0.1595 0.31198-0.30316 0.63176-0.45474 0.94764-0.47018 1.0858-0.25313 0.5595-0.65515 1.5773l1.4333 0.53729c0.345-0.96001 0.15755-0.46479 0.56634-1.4842 0.13629-0.29342 0.2634-0.59125 0.40886-0.88027 0.64286-1.2772 1.4389-2.4701 2.2192-3.666l-1.3712-0.87815z"/>
   <path d="m51.424-842.86c0.07737 0.10349 0.14875 0.2117 0.23209 0.31047 0.52526 0.62254 1.1377 1.1763 1.7245 1.7386 1.0736 1.029 0.5151 0.48496 1.5635 1.521 0.6075 0.60913 1.1924 1.2398 1.7745 1.8727l0.51022-0.48535c-0.61205-0.61297-1.2228-1.2272-1.8361-1.839-0.51753-0.50927-1.0414-1.0123-1.553-1.5274-0.54557-0.54923-1.0867-1.1061-1.5464-1.7304-0.04113-0.0558-0.07528-0.11649-0.11292-0.17474l-0.7564 0.31398z"/>
   <path d="m56.065-841.92c-0.25383 0.11169-0.51378 0.20883-0.7688 0.31766-0.23443 0.10004-0.47432 0.18933-0.69992 0.30781-0.86264 0.45302-1.6324 1.0528-2.4046 1.6392-0.36994 0.27415-0.71669 0.57783-1.0829 0.85674-0.11034 0.084-0.22558 0.1615-0.33836 0.24225 0 0 0.46488 0.59524 0.46488 0.59524 0.46015-0.38379 0.90355-0.78615 1.3667-1.1666 0.56302-0.44202 0.87213-0.70823 1.4874-1.092 0.25049-0.15624 0.50697-0.30454 0.77368-0.43134 0.48704-0.23155 1.0167-0.36244 1.5282-0.52597 0 0-0.32628-0.74298-0.32628-0.74298z"/>
   <path d="m53.309-842.66c0.06882 1.1539 0.05137 2.3103 0.03235 3.4654-0.0091 0.54412-0.02796 1.088-0.04756 1.6318 0 0 0.75627 9e-3 0.75627 9e-3 -0.0064-0.54397-0.01179-1.088-0.0068-1.632 0.01064-1.1583 0.02616-2.3172 0.08278-3.4743h-0.81701z"/>
   <path d="m50.27-841.14c0.59171 0.22021 1.2247 0.30835 1.8471 0.39318 0.12974 0.0177 1.8089 0.22927 1.8856 0.23894 0.8858 0.11262 1.7682 0.2491 2.6505 0.38578l0.09556-0.68553c-0.88687-0.10806-1.7732-0.2201-2.6578-0.34595-0.59426-0.0863-1.2609-0.17811-1.8551-0.28304-0.48939-0.0864-0.99834-0.18052-1.4628-0.36708-0.05856-0.0235-0.11249-0.0572-0.16874-0.0858 0 0-0.33435 0.74948-0.33435 0.74948z"/>
   <path d="m179.06-778.58c0.79632 1.576 2.1041 2.798 3.3648 4.0032 0.71085 0.67436 1.4495 1.3178 2.1962 1.9521 0 0 0.43644-0.53402 0.43644-0.53402-0.20583-0.15916-0.41536-0.31367-0.61748-0.47748-0.69007-0.55926-0.90554-0.771-1.5849-1.3836-1.1008-1.0699-2.245-2.1488-2.918-3.5517-0.048-0.1-0.0838-0.20526-0.12577-0.30789l-0.75122 0.29936z"/>
   <path d="m184.17-778.45c-0.49354 0.31509-1.0006 0.60811-1.4756 0.9518-0.51337 0.3715-0.66468 0.51565-1.1546 0.92967-0.67671 0.60372-1.3273 1.2354-1.9948 1.849 0 0 0.50917 0.52942 0.50917 0.52942 0.63296-0.62727 1.2624-1.2594 1.9353-1.8447 0.43853-0.36261 0.639-0.54525 1.1022-0.86448 0.47415-0.3268 0.98328-0.59817 1.5008-0.84932 0 0-0.42243-0.7014-0.42243-0.7014z"/>
   <path d="m179.12-777.35c0.67305 0.34072 1.3374 0.70264 1.9774 1.1024 0.21011 0.13124 0.41511 0.27045 0.62266 0.40568 0.60972 0.40696 1.1389 0.91297 1.6274 1.4554 0.1358 0.1508 0.26259 0.30941 0.39389 0.46412l0.54355-0.47225c-0.66527-0.7381-1.3464-1.4724-2.1802-2.0274-0.88459-0.58751-1.787-1.1469-2.695-1.6973 0 0-0.28962 0.76942-0.28962 0.76942z"/>
   <path d="m182.32-778.66c-0.58089 1.1635-0.95257 2.4179-1.3097 3.6634-0.26687 0.96968-0.48376 1.9518-0.69285 2.9351l0.71865 0.13554c0.16213-0.97028 0.35056-1.9365 0.6165-2.8847 0.0851-0.28677 0.16338-0.57565 0.25531-0.86032 0.2584-0.80022 0.56329-1.6225 0.97744-2.3581 0.037-0.0657 0.0801-0.12783 0.12021-0.19175l-0.68558-0.43907z"/>
   <path d="m196.84-825.06c0.0373 0.10402 0.0469 0.2225 0.11176 0.31207 0.16828 0.23238 0.75619 0.71392 0.95606 0.87617 0.22568 0.18321 0.4574 0.35891 0.68545 0.53917 0.68972 0.54515 0.66143 0.52487 1.3225 1.0578 0.17375 0.14394 0.3475 0.28789 0.52125 0.43184l0.4458-0.5525c-0.17955-0.13899-0.3591-0.27797-0.53864-0.41695-0.66498-0.51589-1.3323-1.03-1.9617-1.5892-0.16089-0.14297-0.31646-0.29184-0.47048-0.44214-0.0787-0.0768-0.14441-0.1668-0.22745-0.23894-8e-3 -7e-3 -0.0143 0.0152-0.0214 0.0227h-0.82306z"/>
   <path d="m200.89-825.56c-0.65059 0.57855-1.212 1.247-1.7706 1.9114-1.345 1.5996 0.0662-0.067-1.2111 1.4383-0.16455 0.18855-0.32911 0.37709-0.49366 0.56564l0.53504 0.4469c0.1581-0.19486 0.3162-0.38972 0.47429-0.58458 0.58904-0.71489 1.1742-1.4304 1.8142-2.1014 0.24903-0.26112 0.59568-0.60279 0.88139-0.8429 0.0862-0.0724 0.17987-0.13546 0.2698-0.20319 0 0-0.49934-0.63013-0.49934-0.63013z"/>
   <path d="m198.12-825.06c0.37044 1.1214 0.61211 2.2782 0.84167 3.4346 0.16257 0.8294 0.0867 0.43004 0.22861 1.1979l0.71828-0.14313c-0.16583-0.76511-0.0803-0.36731-0.25613-1.1935-0.24166-1.1727-0.49461-2.3427-0.74952-3.5126l-0.78291 0.21666z"/>
   <path d="m195.58-822.38c0.28243-0.018 0.18897-8e-3 0.57719-0.0629 0.64137-0.0904 0.60391-0.10014 1.3075-0.1816 0.82781-0.0958 1.0209-0.10199 1.87-0.167 0.91147-0.0641 1.8217-0.14333 2.7317-0.22495l-0.0706-0.68173c-0.90025 0.10461-1.8013 0.20396-2.7067 0.25454-0.69923 0.0435-1.2068 0.0722-1.9003 0.12646-0.24914 0.0195-0.49789 0.0436-0.74688 0.0648-0.21583 0.0184-0.63257 0.0597-0.88182 0.0614-0.0602 5.2e-4 -0.12008-8e-3 -0.18011-0.0115v0.82239z"/>
   <path d="m115.05-902.29c2.0499 1.062 3.8904 2.4709 5.7273 3.8548 0.2879 0.21903 0.5758 0.43805 0.86371 0.65707 0 0 0.58279-0.78974 0.58279-0.78974-0.29473-0.20772-0.58947-0.41543-0.8842-0.62315-1.8815-1.3614-3.734-2.7639-5.6681-4.0515 0 0-0.62144 0.95247-0.62144 0.95247z"/>
   <path d="m119.42-904.58c-0.8489 1.3428-1.724 2.6696-2.5869 4.0038-0.42514 0.65824-0.83338 1.327-1.2429 1.995l0.92381 0.5338c0.37076-0.67209 0.74137-1.3448 1.1544-1.9925 0.85683-1.3244 1.7263-2.6426 2.7004-3.8856l-0.94884-0.65443z"/>
   <path d="m116.94-904.79c0.10344 0.40833 0.15849 0.60472 0.24148 1.0604 0.11176 0.61365 0.21822 1.426 0.29428 2.0307 0.10799 0.8586 0.20533 1.7185 0.30864 2.5777 0.19921 1.591 0.0964 0.82356 0.30575 2.3027l0.97452-0.15115c-0.24775-1.4454-0.13031-0.69244-0.34674-2.2599-0.0496-0.43674-0.10207-0.87316-0.14876-1.3102-0.16077-1.5052-0.27412-3.0164-0.50856-4.513l-1.1206 0.26268z"/>
   <path d="m113.03-900.81c1.983 0.0532 3.9674 0.047 5.951 0.0721 0 0 0.0132-0.91979 0.0132-0.91979-1.194-0.0188-1.6155-0.0186-2.8041-0.0647-0.90534-0.0351-1.8202-0.0699-2.7194-0.19043-0.0925-0.0124-0.18358-0.0335-0.27536-0.0502l-0.16532 1.1529z"/>
   <path d="m86.34-877.83c-0.02175 3e-3 -0.0776-9e-3 -0.06527 9e-3 0.08387 0.12321 0.20222 0.21934 0.29842 0.33325 0.20595 0.24385 0.40895 0.49023 0.60784 0.73983 0.97645 1.2254 1.9033 2.4892 2.8407 3.7442 0.76345 1.0351 1.5265 2.0704 2.2977 3.0998l0.78318-0.61216c-0.8151-0.98448-1.6179-1.979-2.377-3.0075-1.0883-1.4681-0.89945-1.1944-1.9444-2.6788-0.26771-0.38028-0.53234-0.76271-0.79739-1.1448-0.01848-0.0266-0.76091-1.128-0.92473-1.2972-0.11623-0.12007-0.26533-0.20353-0.39799-0.3053l-0.32105 1.1195z"/>
   <path d="m93.661-877.3c-0.14416 0.0678-0.29268 0.12713-0.43247 0.20349-0.40709 0.22237-1.1783 0.7173-1.5246 0.95246-1.0437 0.70864-2.0206 1.491-2.9951 2.2896-0.27443 0.23736-0.54885 0.47472-0.82328 0.71208 0 0 0.65631 0.73317 0.65631 0.73317 0.25933-0.23687 0.51865-0.47374 0.77798-0.71061 0.30983-0.25766 0.61363-0.5227 0.92948-0.773 1.0558-0.83668 2.1848-1.6282 3.4178-2.1866 0.08882-0.0402 0.18343-0.0663 0.27515-0.0994l-0.28132-1.1211z"/>
   <path d="m91.048-878.89c0.17707 1.8954-0.2334 3.7766-0.6021 5.6252-0.33528 1.4674-0.15976 0.77712-0.51633 2.0736l0.97522 0.24266c0.3067-1.3484 0.15309-0.63585 0.45527-2.1389 0.21939-1.1458 0.31342-1.6122 0.51586-2.7711 0.07583-0.43417 0.16012-0.86718 0.21873-1.304 0.07702-0.57402 0.08016-1.1511 0.12077-1.7274h-1.1674z"/>
   <path d="m85.068-875.35c0.08646 0.0326 0.17108 0.0706 0.25939 0.0978 0.62638 0.19328 1.2613 0.35795 1.8905 0.5419 1.4065 0.41122 2.8095 0.83438 4.2159 1.2459 1.2858 0.38533 2.5856 0.71894 3.8956 1.0107l0.20534-1.0279c-1.2953-0.22432-2.5798-0.50395-3.8459-0.85973-1.7638-0.50237-3.5287-1.0206-5.2447-1.6711-0.51728-0.1961-0.51298-0.20035-0.85483-0.37637l-0.52136 1.0388z"/>
   <path d="m80.943-897.65c1.5606 2.1027 3.0437 4.2611 4.533 6.4141 0.95342 1.3694 0.4978 0.71784 1.3661 1.9552l1.1923-0.86635c-0.90603-1.1864-0.43382-0.55851-1.4135-1.886-1.5195-2.1355-3.0221-4.2898-4.3545-6.5476l-1.3234 0.9307z"/>
   <path d="m87.799-898.12c-1.2062 1.5552-2.5012 3.0396-3.6452 4.6432-0.35353 0.49554-0.68399 1.007-1.026 1.5105-0.29223 0.44313-0.58445 0.88626-0.87668 1.3294l1.1654 0.74239c0.27478-0.44029 0.54956-0.88059 0.82434-1.3209 0.32842-0.48282 0.64144-0.9764 0.98526-1.4485 1.1658-1.6006 2.5203-3.0442 3.8801-4.4794l-1.3072-0.97673z"/>
   <path d="m84.644-899.4c0.07708 1.4635 0.0838 2.9292 0.18174 4.3919 0.05924 0.88482 0.22776 2.7797 0.30351 3.6544 0.21795 2.1668 0.11019 1.1328 0.32135 3.1022 0 0 1.4038-0.1761 1.4038-0.1761-0.28114-1.9262-0.14652-0.91419-0.39594-3.0372-0.04966-0.60795-0.10952-1.2152-0.149-1.8238-0.13194-2.034-0.16786-4.0762-0.046-6.1114h-1.6195z"/>
   <path d="m81.344-893.46c0.18286 0.0899 0.3586 0.19581 0.54858 0.26958 1.0476 0.40677 2.207 0.56257 3.3115 0.71562 1.2243 0.16963 1.9602 0.22982 3.1944 0.35166 1.9445 0.1729 1.0024 0.0939 2.8261 0.23872l0.09588-1.4226c-1.7967-0.0974-0.86922-0.038-2.7822-0.18179-1.472-0.15384-2.9371-0.30755-4.3829-0.63612-0.51808-0.11774-1.0496-0.26347-1.5414-0.47281-0.0963-0.041-0.18387-0.0999-0.27581-0.14986l-0.99421 1.2876z"/>
   <path d="m176.44-796.02c0.91326 0.82304 1.5685 1.886 2.21 2.9203 0.7138 1.151 0.81739 1.3567 1.4847 2.5252 0.55383 0.98553 1.0868 1.9824 1.622 2.978l1.3099-0.74141c-0.58542-0.96861-1.158-1.9446-1.713-2.931-0.63448-1.1002-0.84586-1.4764-1.5004-2.572-0.63017-1.0549-1.2572-2.1507-2.0746-3.0785-0.16217-0.18405-0.3528-0.34113-0.5292-0.5117l-0.80935 1.411z"/>
   <path d="m183.53-795.98c-0.13136 0.0963-0.25997 0.1964-0.39409 0.28883-0.85973 0.59254-1.0976 0.71509-2.0443 1.3438-1.4375 0.95466-2.849 1.9463-4.2558 2.9449-1.3724 0.99538-0.74194 0.53608-1.8922 1.3767l0.93084 1.1682c1.0501-0.89971 0.46679-0.41581 1.7598-1.4398 1.3722-0.99451 2.7498-1.9705 4.198-2.854 1.0017-0.61114 1.2195-0.69532 2.16-1.2366 0.19868-0.11435 0.39342-0.23536 0.59013-0.35303l-1.0523-1.239z"/>
   <path d="m180.08-796.04c0.26296 2.0923-0.0869 4.1768-0.47009 6.2304-0.32295 1.47-0.15545 0.77701-0.49384 2.0812 0 0 1.4535 0.33985 1.4535 0.33985 0.29149-1.369 0.14484-0.64626 0.43525-2.169 0.38725-2.1799 0.76213-4.3763 0.70739-6.5986l-1.6322 0.11615z"/>
   <path d="m175.4-791.8c0.18603 0.0214 0.37118 0.0527 0.55808 0.0642 0.51173 0.0316 1.8021 0.0297 2.2003 0.0316 0.56345 3e-3 1.1269 3e-3 1.6903 7e-3 2.0831 0.0139 1.5742 0.0105 3.6251 0.0583 1.9911 0.0685 1.0426 0.0316 2.8456 0.10849l0.0328-1.4312c-1.8066-5e-3 -0.85623 2.7e-4 -2.851-0.0183-1.0965-0.0189-2.5265-0.0391-3.6194-0.0766-1.2369-0.0425-2.4803-0.0931-3.7086-0.25446-0.0848-0.0111-0.16826-0.0305-0.2524-0.0457l-0.52094 1.557z"/>
   <path d="m219.51-813.7c0.0821 0.24901 0.1742 0.49498 0.24642 0.74702 0.36633 1.2786 0.60732 2.5909 0.84137 3.8982 0.15434 0.86211 0.32336 1.8821 0.46936 2.7518l1.4089-0.25192c-0.4859-2.5232-0.86141-5.0674-1.4181-7.5769l-1.5479 0.43179z"/>
   <path d="m221.83-812.56c-0.0515 0.0934-0.0954 0.19131-0.15449 0.28007-0.6496 0.97538-1.4658 1.8338-2.2536 2.6966-1.1092 1.2147-1.1866 1.2845-2.3107 2.4674-1.2217 1.2624-0.64676 0.67876-1.7208 1.7547l1.0794 1.0067c1.0077-1.1393 0.46333-0.52914 1.6356-1.8281 1.2132-1.2889 1.0944-1.1697 2.3334-2.4576 0.87774-0.91236 1.807-1.8028 2.5893-2.8018 0.10924-0.13948 0.1972-0.29427 0.29579-0.44141l-1.494-0.67654z"/>
   <path d="m221.16-815.33c0.0954 1.6586-0.2218 3.3053-0.48621 4.9348-0.30607 1.747-0.14501 0.90042-0.47914 2.5405 0 0 1.4204 0.27125 1.4204 0.27125 0.3028-1.67 0.14783-0.81205 0.46471-2.5738 0.30629-1.7132 0.6697-3.4277 0.72393-5.1728h-1.6437z"/>
   <path d="m217.78-807.67c0.214-0.024 0.42855-0.0437 0.642-0.0722 1.2119-0.16175 2.4162-0.37925 3.6248-0.56272 1.1034-0.16751 1.4386-0.20815 2.5097-0.35195l-0.21388-1.4347c-1.294 0.20926-2.5882 0.41932-3.889 0.58361-0.626 0.0791-1.4845 0.17589-2.1375 0.21216-0.17848 0.01-0.35748 5e-3 -0.53622 7e-3v1.6182z"/>
   <path d="m182.16-815.22c2.2416 2.4309 4.2312 5.0835 6.2571 7.6925l1.1981 1.5662 1.58-1.2263c-0.41022-0.51322-0.82043-1.0264-1.2306-1.5396-1.3593-1.7297-2.709-3.4663-4.0159-5.236-0.34248-0.46375-0.67166-0.93715-1.0134-1.4015-0.40977-0.55688-0.72748-0.96186-1.1358-1.4886l-1.6395 1.6334z"/>
   <path d="m190.47-815.89c-0.15872 0.17723-0.31178 0.35966-0.47615 0.5317-1.1105 1.1623-2.2999 2.2514-3.4667 3.3563-3.0879 2.9242 0.0981-0.0859-2.854 2.7013-0.39482 0.38208-0.78965 0.76416-1.1845 1.1462l1.461 1.455c0.37347-0.38362 0.74693-0.76723 1.1204-1.1508 2.2807-2.2076 4.6201-4.3491 7.0359-6.4097l-1.6361-1.63z"/>
   <path d="m186.83-816.3c-0.57978 2.7176-0.7714 5.4983-0.96921 8.2637-0.15079 2.1387-0.0804 1.1109-0.21216 3.0832l2.1023 0.10594c0.0672-1.9463 0.0245-0.93258 0.1321-3.0409 0.19784-2.5949 0.38213-5.234 1.1602-7.7335l-2.2132-0.67845z"/>
   <path d="m179.63-810.08c3.4687-0.74808 7.0116-1.0154 10.546-1.2302 0.55749-0.0252 1.115-0.0505 1.6725-0.0757l-0.13063-2.0447c-0.5612 0.0457-1.1224 0.0914-1.6836 0.13709-2.1692 0.17576-4.3398 0.33871-6.5073 0.53487-0.64978 0.0588-1.2988 0.126-1.9482 0.189-0.47429 0.0496-0.94801 0.1049-1.4229 0.14873-0.27669 0.0255-0.55433 0.0396-0.8315 0.0594l0.30535 2.2815z"/>
  </g>
 </g>
 <g transform="translate(-6.6672)" shape-rendering="auto">
  <path d="m113.8 102.29v6.961h1.1076v-5.8534h5.8536v-1.1076zm14.841 0v1.1076h5.8534v5.8534h1.1076v-6.961zm-14.841 14.841v6.961h6.9612v-1.1076h-5.8536v-5.8534zm20.695 0v5.8534h-5.8534v1.1076h6.961v-6.961z" color="#000000" color-rendering="auto" dominant-baseline="auto" fill="#800000" image-rendering="auto" solid-color="#000000" stop-color="#000000" stroke="#800000" stroke-linecap="square" stroke-width="1.1074" style="font-feature-settings:normal;font-variant-alternates:normal;font-variant-caps:normal;font-variant-east-asian:normal;font-variant-ligatures:normal;font-variant-numeric:normal;font-variant-position:normal;font-variation-settings:normal;inline-size:0;isolation:auto;mix-blend-mode:normal;shape-margin:0;shape-padding:0;text-decoration-color:#000000;text-decoration-line:none;text-decoration-style:solid;text-indent:0;text-orientation:mixed;text-transform:none;white-space:normal"/>
  <g>
   <path d="m126.54 113.19c0 1.0136-0.82167 1.8353-1.8352 1.8353s-1.8352-0.82168-1.8352-1.8353 0.82167-1.8352 1.8352-1.8352c1.0136 0 1.8352 0.82167 1.8352 1.8352z" color="#000000" color-rendering="auto" dominant-baseline="auto" image-rendering="auto" solid-color="#000000" stop-color="#000000" style="font-feature-settings:normal;font-variant-alternates:normal;font-variant-caps:normal;font-variant-east-asian:normal;font-variant-ligatures:normal;font-variant-numeric:normal;font-variant-position:normal;font-variation-settings:normal;inline-size:0;isolation:auto;mix-blend-mode:normal;shape-margin:0;shape-padding:0;text-decoration-color:#000000;text-decoration-line:none;text-decoration-style:solid;text-indent:0;text-orientation:mixed;text-transform:none;white-space:normal"/>
   <path d="m124.7 109.52c-2.0054 0-3.6699 1.6645-3.6699 3.6699 0 2.0054 1.6645 3.6719 3.6699 3.6719 2.0054 1e-5 3.6699-1.6664 3.6699-3.6719-1e-5 -2.0054-1.6645-3.6699-3.6699-3.6699z" color="#000000" color-rendering="auto" dominant-baseline="auto" fill="#800000" image-rendering="auto" solid-color="#000000" stop-color="#000000" style="font-feature-settings:normal;font-variant-alternates:normal;font-variant-caps:normal;font-variant-east-asian:normal;font-variant-ligatures:normal;font-variant-numeric:normal;font-variant-position:normal;font-variation-settings:normal;inline-size:0;isolation:auto;mix-blend-mode:normal;shape-margin:0;shape-padding:0;text-decoration-color:#000000;text-decoration-line:none;text-decoration-style:solid;text-indent:0;text-orientation:mixed;text-transform:none;white-space:normal"/>
  </g>
 </g>
 <g shape-rendering="auto">
  <path d="m85.035 113.19c3e-6 1.0136-0.82167 1.8353-1.8352 1.8353-1.0136 0-1.8352-0.82167-1.8352-1.8353 3e-6 -1.0136 0.82167-1.8352 1.8352-1.8352s1.8352 0.82167 1.8352 1.8352z" color="#000000" color-rendering="auto" dominant-baseline="auto" image-rendering="auto" solid-color="#000000" stop-color="#000000" style="font-feature-settings:normal;font-variant-alternates:normal;font-variant-caps:normal;font-variant-east-asian:normal;font-variant-ligatures:normal;font-variant-numeric:normal;font-variant-position:normal;font-variation-settings:normal;inline-size:0;isolation:auto;mix-blend-mode:normal;shape-margin:0;shape-padding:0;text-decoration-color:#000000;text-decoration-line:none;text-decoration-style:solid;text-indent:0;text-orientation:mixed;text-transform:none;white-space:normal"/>
  <path d="m83.199 109.52c-2.0054 0-3.6699 1.6645-3.6699 3.6699-6e-6 2.0054 1.6645 3.6719 3.6699 3.6719 2.0054 0 3.6719-1.6664 3.6719-3.6719-5e-6 -2.0054-1.6665-3.6699-3.6719-3.6699z" color="#000000" color-rendering="auto" dominant-baseline="auto" image-rendering="auto" solid-color="#000000" stop-color="#000000" style="font-feature-settings:normal;font-variant-alternates:normal;font-variant-caps:normal;font-variant-east-asian:normal;font-variant-ligatures:normal;font-variant-numeric:normal;font-variant-position:normal;font-variation-settings:normal;inline-size:0;isolation:auto;mix-blend-mode:normal;shape-margin:0;shape-padding:0;text-decoration-color:#000000;text-decoration-line:none;text-decoration-style:solid;text-indent:0;text-orientation:mixed;text-transform:none;white-space:normal"/>
 </g>
 <path d="m141.17 146.9-4.5824 7.937-4.5824-7.937-4.5824 7.937-4.5824-7.937-4.5824 7.937-4.5824-7.937-4.5824 7.937-4.5824-7.937-4.5824 7.937-4.5824-7.937-4.5824 7.937-4.5824-7.937-4.5824 7.937-4.5824-7.937-4.5824 7.937-4.5824-7.937" fill="#666" stroke="#000" stroke-linecap="square" stroke-width="2.063" style="paint-order:markers fill stroke"/>
</svg>
