<?xml version="1.0" encoding="UTF-8" standalone="no"?>
<svg xmlns:dc="http://purl.org/dc/elements/1.1/" xmlns:cc="http://creativecommons.org/ns#"
     xmlns:rdf="http://www.w3.org/1999/02/22-rdf-syntax-ns#" xmlns="http://www.w3.org/2000/svg"
     xmlns:sodipodi="http://sodipodi.sourceforge.net/DTD/sodipodi-0.dtd"
     xmlns:inkscape="http://www.inkscape.org/namespaces/inkscape" width="790" height="1020" version="1.1"
     viewBox="0 0 209.02 269.88" id="svg107" sodipodi:docname="Remoter2.svg"
     inkscape:version="1.0 (4035a4fb49, 2020-05-01)">
  <metadata id="metadata111">
    <rdf:RDF>
      <cc:Work rdf:about="">
        <dc:format>image/svg+xml</dc:format>
        <dc:type rdf:resource="http://purl.org/dc/dcmitype/StillImage" />
        <dc:title />
      </cc:Work>
    </rdf:RDF>
  </metadata>
  <sodipodi:namedview pagecolor="#ffffff" bordercolor="#666666" borderopacity="1" objecttolerance="10" gridtolerance="10" guidetolerance="10" inkscape:pageopacity="0" inkscape:pageshadow="2" inkscape:window-width="1920" inkscape:window-height="1027" id="namedview109" showgrid="false" inkscape:zoom="0.84313723" inkscape:cx="433.92253" inkscape:cy="463.80361" inkscape:window-x="-8" inkscape:window-y="-8" inkscape:window-maximized="1" inkscape:current-layer="g53" inkscape:document-rotation="0" />
  <defs id="defs43">
    <linearGradient id="linearGradient7245" x1="136.08" x2="136.08" y1="-762.68" y2="-719.76" gradientTransform="matrix(1.7234 0 0 1 -98.308 0)" gradientUnits="userSpaceOnUse">
      <stop stop-color="#f60" stop-opacity=".55272" offset="0" id="stop2" />
      <stop stop-color="#fbff00" stop-opacity=".74441" offset="1" id="stop4" />
    </linearGradient>
    <filter id="filter7683-2" x="-.22626" y="-.50557" width="1.4525" height="2.0111" color-interpolation-filters="sRGB">
      <feGaussianBlur result="fbSourceGraphic" stdDeviation="11.42914" id="feGaussianBlur7" />
      <feColorMatrix in="fbSourceGraphic" result="fbSourceGraphicAlpha" values="0 0 0 -1 0 0 0 0 -1 0 0 0 0 -1 0 0 0 0 1 0" id="feColorMatrix9" />
      <feMorphology in="fbSourceGraphic" operator="dilate" radius="2.4" result="result1" id="feMorphology11" />
      <feTurbulence baseFrequency="0.09 0.028" id="feTurbulence13" />
      <feColorMatrix result="result2" values="2 0 0 0 0 0 2 0 0 0 0 0 0 0 0 0 0 0 1 0" id="feColorMatrix15" />
      <feDisplacementMap in="result1" in2="result2" result="result4" scale="10.31941" xChannelSelector="R" yChannelSelector="G" id="feDisplacementMap17" />
      <feFlood flood-color="rgb(255,159,54)" result="result3" id="feFlood19" />
      <feMorphology in="result4" radius="3.8" result="result7" id="feMorphology21" />
      <feGaussianBlur in="result7" result="result7" stdDeviation="2.4" id="feGaussianBlur23" />
      <feComposite in="result3" in2="result4" operator="in" result="result5" id="feComposite25" />
      <feComposite in2="result7" operator="out" id="feComposite27" />
      <feOffset dx="-4.5" dy="-7" result="result6" id="feOffset29" />
      <feGaussianBlur result="result7" stdDeviation="4.8" id="feGaussianBlur31" />
      <feComposite in="fbSourceGraphic" in2="result6" result="result8" id="feComposite33" />
      <feComposite in2="result7" id="feComposite35" />
    </filter>
    <linearGradient id="linearGradient7729" x1="3776.5" x2="3776.5" y1="897.01" y2="911.55" gradientUnits="userSpaceOnUse">
      <stop offset="0" id="stop38" />
      <stop stop-color="#8b8b8b" offset="1" id="stop40" />
    </linearGradient>
  </defs>
  <g transform="matrix(.99635 0 0 1.0001 -30.89 972.88)" id="g105">
    <ellipse transform="matrix(.79498 0 0 .68308 28.048 -233.88)" cx="135.9" cy="-741.22" rx="60.617" ry="27.128" fill="url(#linearGradient7245)" filter="url(#filter7683-2)" style="mix-blend-mode:normal;paint-order:normal" id="ellipse45" />
    <path transform="matrix(.26458 0 0 .26458 -863.16 -988.74)" d="m3776 203.35a380.7 380.7 0 0 0-380.7 380.7 380.7 380.7 0 0 0 163.91 312.95h433.57a380.7 380.7 0 0 0 163.91-312.95 380.7 380.7 0 0 0-380.7-380.7z" fill="#7599bd" fill-rule="evenodd" stroke="url(#linearGradient7729)" stroke-linejoin="round" stroke-width="31.495" style="paint-order:normal;fill:#8f847d;fill-opacity:1" id="path47" />
    <g transform="translate(28.597 -1026.3)" stroke="#000" stroke-linecap="round" stroke-linejoin="round" stroke-width="3.21" id="g53">
      <path d="m 145.36,126.84 11.399,-42.542 c -14.373,-4.7543 -18.478,-14.31 -7.8094,-29.145 l 7.8094,29.145 21.152,-5.6678 -3.236,-12.077 -8.386,2.247 1.02,3.8069 8.1125,-2.0865 2.47095,8.323894 L 156.759,84.298" fill="#b3b3b3" id="path49" sodipodi:nodetypes="ccccccccccc" style="stroke:#333333" />
      <path d="m39.852 80.163 28.399-9.2273m-31.327-2.0387 28.399-9.2273m2.2426 67.169-16.24-60.608" fill="none" id="path51" style="stroke:#333333" />
    </g>
    <g fill="none" stroke="#000" id="g71">
      <g stroke-width="1.81" id="g69">
        <path d="m46.878-789.41 16.631-12.095 24.946 26.836-16.631 19.277" id="path63" />
        <path d="m88.456-774.67 33.888 13.036-1.393 7.7937" id="path65" />
        <path d="m122.34-761.64 35.866-5.6551 5.6573 14.491" id="path67" />
      </g>
    </g>
    <g fill-rule="evenodd" stroke="#140c00" stroke-linecap="round" stroke-linejoin="round" stroke-width=".84422" id="g83">
      <circle cx="84.978" cy="-774.84" r=".22037" style="paint-order:normal" id="circle73" />
      <circle cx="83.388" cy="-776.35" r=".22037" style="paint-order:normal" id="circle75" />
      <circle cx="118.88" cy="-759.93" r=".22037" style="paint-order:normal" id="circle77" />
      <circle cx="156.68" cy="-764.28" r=".22037" style="paint-order:normal" id="circle79" />
      <circle cx="51.414" cy="-789.79" r=".22037" style="paint-order:normal" id="circle81" />
    </g>
    <path d="m193.41-887.04 13.036 33.888 27.712-4.9305" fill="none" stroke="#000" stroke-width="1.81" id="path85" />
    <path d="m204.9-904.09-11.491 17.054-32.621-16.686 9.0349-23.802" fill="none" stroke="#000" stroke-width="1.81" id="path87" />
    <g fill-rule="evenodd" stroke="#140c00" stroke-linecap="round" stroke-linejoin="round" stroke-width=".84422" id="g99">
      <circle cx="164.37" cy="-905.45" r=".22037" style="paint-order:normal" id="circle89" />
      <circle cx="196.18" cy="-887.12" r=".22037" style="paint-order:normal" id="circle91" />
      <circle cx="197.41" cy="-884.77" r=".22037" style="paint-order:normal" id="circle93" />
      <circle cx="227.45" cy="-859.74" r=".22037" style="paint-order:normal" id="circle95" />
      <circle cx="200.72" cy="-903.57" r=".22037" style="paint-order:normal" id="circle97" />
    </g>
    <path style="fill:#4d4d4d;fill-opacity:1;stroke:none;stroke-width:0.465836;stroke-linecap:round;stroke-linejoin:round" id="path1039" d="m 60.922594,-884.23473 c 1.043256,1.07699 1.928734,2.29238 2.856552,3.46584 2.884927,3.64873 -0.608198,-0.80656 2.059741,2.60303 1.053714,1.33503 0.509518,0.74455 1.604613,1.79663 0,0 1.442341,-1.65592 1.442341,-1.65592 v 0 c -0.924432,-0.67874 -0.417969,-0.23874 -1.421046,-1.42459 -0.745914,-0.9221 -1.31435,-1.61127 -2.036637,-2.56147 -0.969174,-1.27498 -1.867791,-2.60286 -2.869469,-3.85348 0,0 -1.636095,1.62996 -1.636095,1.62996 z" />
    <path style="fill:#4d4d4d;fill-opacity:1;stroke:none;stroke-width:0.465836;stroke-linecap:round;stroke-linejoin:round" id="path1041" d="m 67.702549,-886.3304 c -1.363588,1.4672 -2.93563,2.72839 -4.418593,4.07293 -1.249382,1.16461 -0.649721,0.58292 -1.801909,1.74207 0,0 1.547167,1.49139 1.547167,1.49139 v 0 c 1.048153,-1.10682 0.490289,-0.54691 1.680217,-1.67316 0.324586,-0.29435 0.644102,-0.59435 0.973757,-0.88306 1.285726,-1.12602 2.671836,-2.14468 3.868042,-3.36886 0,0 -1.848681,-1.38131 -1.848681,-1.38131 z" />
    <path style="fill:#4d4d4d;fill-opacity:1;stroke:none;stroke-width:0.465836;stroke-linecap:round;stroke-linejoin:round" id="path1043" d="m 63.398387,-885.53875 c 0.490968,1.21717 0.748413,2.51326 0.964253,3.80228 0.238784,1.53123 0.716015,3.00106 1.22623,4.45904 0.201027,0.59972 0.112286,0.31206 0.270043,0.86181 0,0 2.182336,-0.65341 2.182336,-0.65341 v 0 c -0.203343,-0.64864 -0.09356,-0.32631 -0.32956,-0.96693 -0.490779,-1.32469 -0.958893,-2.65706 -1.1827,-4.05826 -0.244908,-1.48059 -0.530576,-2.95875 -1.002798,-4.38668 0,0 -2.127804,0.94215 -2.127804,0.94215 z" />
    <path style="fill:#4d4d4d;fill-opacity:1;stroke:none;stroke-width:0.465836;stroke-linecap:round;stroke-linejoin:round" id="path1045" d="m 52.337787,-862.00862 c 1.350756,0.73325 2.689224,1.48843 4.03189,2.23619 0,0 1.046544,-1.88398 1.046544,-1.88398 v 0 c -1.348887,-0.73595 -2.693856,-1.48918 -3.94836,-2.37872 0,0 -1.130074,2.02651 -1.130074,2.02651 z" />
    <path style="fill:#4d4d4d;fill-opacity:1;stroke:none;stroke-width:0.465836;stroke-linecap:round;stroke-linejoin:round" id="path1047" d="m 58.912616,-865.99241 c -1.613181,2.25162 -3.358774,4.40663 -5.172,6.5005 -1.105259,1.22772 -0.572227,0.66393 -1.589617,1.70022 0,0 1.590047,1.4726 1.590047,1.4726 v 0 c 1.018394,-1.14461 0.488433,-0.5347 1.584867,-1.83407 1.783958,-2.13331 3.519852,-4.30906 5.377291,-6.37972 0,0 -1.790588,-1.45953 -1.790588,-1.45953 z" />
    <path style="fill:#4d4d4d;fill-opacity:1;stroke:none;stroke-width:0.465836;stroke-linecap:round;stroke-linejoin:round" id="path1049" d="m 53.774263,-864.6745 c 0.08052,0.078 0.167763,0.1496 0.241547,0.23393 0.229883,0.26274 0.386909,0.53767 0.564614,0.84057 0.488863,0.83328 0.921642,1.69265 1.353795,2.55594 0.681137,1.43594 1.372346,2.86792 1.963874,4.34346 0,0 2.087115,-0.88366 2.087115,-0.88366 v 0 c -0.670636,-1.48842 -1.416853,-2.9409 -2.10654,-4.42045 -0.145162,-0.29324 -0.791475,-1.60101 -0.941801,-1.89613 -0.431105,-0.84634 -0.862354,-1.71171 -1.516232,-2.41386 0,0 -1.646372,1.6402 -1.646372,1.6402 z" />
    <path style="fill:#4d4d4d;fill-opacity:1;stroke:none;stroke-width:0.465836;stroke-linecap:round;stroke-linejoin:round" id="path1053" d="m 60.491377,-861.64834 c -1.321489,0.251 -2.593066,0.67753 -3.858339,1.12205 -0.813333,0.28679 -1.636488,0.50976 -2.493392,0.60759 -0.643283,0.0449 -0.313609,0.0261 -0.98909,0.0552 0,0 0.08704,2.25227 0.08704,2.25227 v 0 c 0.766492,-0.0262 0.38611,-0.008 1.141166,-0.054 0.187502,-0.0186 0.375882,-0.0298 0.562508,-0.0557 0.848099,-0.11769 1.64799,-0.43512 2.457582,-0.6961 1.167498,-0.43153 2.34533,-0.8546 3.591265,-0.99533 0,0 -0.498738,-2.23591 -0.498738,-2.23591 z" />
    <path style="fill:#4d4d4d;fill-opacity:1;stroke:none;stroke-width:0.465836;stroke-linecap:round;stroke-linejoin:round" id="path1069" d="m 212.57755,-839.20693 c 0.11155,0.12411 0.23175,0.24101 0.33464,0.37233 0.85945,1.09686 1.52282,2.34628 2.17707,3.56877 0.59999,1.12112 1.17606,2.25477 1.7678,3.38023 0.70594,1.37422 1.4823,2.70952 2.27262,4.03653 0,0 1.81135,-1.12 1.81135,-1.12 v 0 c -0.81725,-1.25239 -1.60615,-2.52216 -2.29967,-3.84827 -1.06869,-2.02988 -0.71148,-1.33924 -1.76562,-3.39051 -0.81197,-1.58001 -1.54812,-3.22939 -2.66209,-4.62904 0,0 -1.6361,1.62996 -1.6361,1.62996 z" />
    <path style="fill:#4d4d4d;fill-opacity:1;stroke:none;stroke-width:0.465836;stroke-linecap:round;stroke-linejoin:round" id="path1071" d="m 220.98167,-839.26049 c -2.36621,1.34707 -4.60021,2.91765 -6.8487,4.4492 -1.26248,0.86524 -2.5264,1.72841 -3.78965,2.59254 0,0 1.23418,1.72526 1.23418,1.72526 v 0 c 1.21946,-0.89864 2.44506,-1.78896 3.69642,-2.64338 1.59643,-1.07183 1.35777,-0.92828 2.96322,-1.94107 1.03701,-0.6542 2.07538,-1.32822 3.18214,-1.86248 0.17362,-0.0838 0.3545,-0.15177 0.53175,-0.22766 0,0 -0.96936,-2.09241 -0.96936,-2.09241 z" />
    <path style="fill:#4d4d4d;fill-opacity:1;stroke:none;stroke-width:0.465836;stroke-linecap:round;stroke-linejoin:round" id="path1073" d="m 212.25555,-835.28116 c 2.05665,0.0828 4.09283,0.42177 6.12305,0.73836 2.02432,0.38821 1.04691,0.19143 2.93294,0.58695 0,0 0.40562,-2.05995 0.40562,-2.05995 v 0 c -1.92354,-0.34893 -0.92581,-0.16715 -2.99313,-0.54571 -2.1484,-0.39439 -4.3002,-0.77476 -6.46848,-1.04572 0,0 0,2.32607 0,2.32607 z" />
    <path style="fill:#4d4d4d;fill-opacity:1;stroke:none;stroke-width:0.465836;stroke-linecap:round;stroke-linejoin:round" id="path1075" d="m 217.71497,-840.25077 c -0.58697,2.37042 -1.20996,4.73121 -1.78208,7.10537 -0.28999,1.26581 -0.61965,2.52127 -0.96921,3.77176 0,0 2.08992,0.54017 2.08992,0.54017 v 0 c 0.30929,-1.27792 0.60699,-2.55843 0.90346,-3.83937 0.53087,-2.31501 1.14352,-4.61332 1.96809,-6.84397 0,0 -2.21018,-0.73396 -2.21018,-0.73396 z" />
    <path style="fill:#4d4d4d;fill-opacity:1;stroke:none;stroke-width:0.465836;stroke-linecap:round;stroke-linejoin:round" id="path1077" d="m 194.02697,-796.20018 c 0.22744,0.0469 0.45316,0.10305 0.68233,0.14064 0.78058,0.12803 1.34099,0.16318 2.15139,0.21918 1.38913,0.096 2.78028,0.15276 4.17141,0.20985 1.07908,0.0426 2.15829,0.0822 3.23745,0.12278 0,0 0.0388,-2.19296 0.0388,-2.19296 v 0 c -1.06442,0.003 -2.12894,0.002 -3.19297,-0.0329 -1.93722,-0.0727 -3.98965,-0.0973 -5.88854,-0.51665 -0.14283,-0.0315 -0.28166,-0.0789 -0.4225,-0.11841 0,0 -0.77737,2.16849 -0.77737,2.16849 z" />
    <path style="fill:#4d4d4d;fill-opacity:1;stroke:none;stroke-width:0.465836;stroke-linecap:round;stroke-linejoin:round" id="path1079" d="m 200.34827,-801.04937 c -1.52704,1.93898 -3.07696,3.86066 -4.63246,5.77735 -0.88856,1.10054 -1.79013,2.19149 -2.79281,3.19109 0,0 1.64222,1.51448 1.64222,1.51448 v 0 c 0.96085,-1.10679 1.85517,-2.26674 2.75263,-3.4248 1.58587,-1.98381 3.20531,-3.94103 4.97536,-5.76635 0,0 -1.94494,-1.29177 -1.94494,-1.29177 z" />
    <path style="fill:#4d4d4d;fill-opacity:1;stroke:none;stroke-width:0.465836;stroke-linecap:round;stroke-linejoin:round" id="path1081" d="m 195.66684,-799.99587 c 0.0557,0.46899 0.076,0.78817 0.22678,1.26173 0.48402,1.5206 1.40316,3.06933 2.18725,4.45603 0.80377,1.46021 1.81567,2.79571 2.58671,4.27314 0,0 1.9907,-1.08083 1.9907,-1.08083 v 0 c -0.82989,-1.45958 -1.8913,-2.77042 -2.72208,-4.23125 -0.51643,-0.91749 -0.70673,-1.2177 -1.15597,-2.16465 -0.37487,-0.79021 -0.77901,-1.62214 -0.78883,-2.51417 0,0 -2.32456,0 -2.32456,0 z" />
    <path style="fill:#4d4d4d;fill-opacity:1;stroke:none;stroke-width:0.465836;stroke-linecap:round;stroke-linejoin:round" id="path1099" d="m 69.276981,-846.68508 c 1.943172,2.40298 3.580844,5.02881 5.20339,7.6515 0.577216,0.97883 1.153831,1.95752 1.751699,2.92394 0,0 1.84541,-1.20886 1.84541,-1.20886 v 0 c -0.647639,-0.91767 -1.267708,-1.85334 -1.864253,-2.80502 -1.695683,-2.61315 -3.359274,-5.24722 -5.038567,-7.87041 0,0 -1.897679,1.30885 -1.897679,1.30885 z" />
    <path style="fill:#4d4d4d;fill-opacity:1;stroke:none;stroke-width:0.465836;stroke-linecap:round;stroke-linejoin:round" id="path1101" d="m 77.332825,-848.02133 c -1.018519,0.94647 -2.200943,1.69439 -3.314089,2.52185 -1.015845,0.75512 -1.365462,1.04463 -2.334404,1.81403 -0.304021,0.24984 -0.608042,0.49968 -0.912066,0.74952 0,0 1.396387,1.63097 1.396387,1.63097 v 0 c 0.283153,-0.24912 0.566309,-0.49824 0.849462,-0.74736 0.906816,-0.75104 1.224749,-1.03988 2.204237,-1.74091 1.167144,-0.83533 2.409706,-1.56316 3.558744,-2.42455 0,0 -1.448271,-1.80355 -1.448271,-1.80355 z" />
    <path style="fill:#4d4d4d;fill-opacity:1;stroke:none;stroke-width:0.465836;stroke-linecap:round;stroke-linejoin:round" id="path1103" d="m 72.907322,-848.85806 c 0.02263,0.0907 0.05127,0.1802 0.06789,0.27221 0.188965,1.04621 0.242013,2.12491 0.297557,3.18347 0.07782,1.48314 0.08612,2.19914 0.125518,3.70643 0.03533,2.54227 0.02708,1.30225 0.02733,3.72005 0,0 2.039134,-0.02 2.039134,-0.02 v 0 c -0.04767,-2.42763 -0.02741,-1.18184 -0.05944,-3.73741 -0.0078,-0.68429 -0.03382,-3.02698 -0.04521,-3.75507 -0.01822,-1.1654 -0.01413,-2.34446 -0.131621,-3.50603 -0.01705,-0.1687 -0.0492,-0.33556 -0.0738,-0.50334 0,0 -2.247363,0.6397 -2.247363,0.6397 z" />
    <path style="fill:#4d4d4d;fill-opacity:1;stroke:none;stroke-width:0.465836;stroke-linecap:round;stroke-linejoin:round" id="path1105" d="m 69.161124,-842.18949 c 3.244799,-0.18 6.496567,-0.18625 9.745408,-0.18411 2.561956,0.0276 1.334509,0.01 3.682369,0.0507 0,0 0,-2.04893 0,-2.04893 v 0 c -2.34786,0.0406 -1.120413,0.023 -3.682369,0.0507 -3.248841,0.002 -6.500609,-0.004 -9.745408,-0.18411 0,0 0,2.31583 0,2.31583 z" />
    <path style="fill:#4d4d4d;fill-opacity:1;stroke:none;stroke-width:0.465836;stroke-linecap:round;stroke-linejoin:round" id="path1107" d="m 58.94319,-824.827 c 0.214846,0.27863 0.440589,0.54924 0.64454,0.83589 2.190855,3.07913 3.964965,6.43325 5.701684,9.77894 0.274959,0.53919 0.549914,1.07839 0.824872,1.61759 0,0 1.792269,-0.95248 1.792269,-0.95248 v 0 c -0.296091,-0.5273 -0.592185,-1.0546 -0.888279,-1.5819 -2.052154,-3.73454 -4.065805,-7.49693 -6.310982,-11.12077 0,0 -1.764104,1.42273 -1.764104,1.42273 z" />
    <path style="fill:#4d4d4d;fill-opacity:1;stroke:none;stroke-width:0.465836;stroke-linecap:round;stroke-linejoin:round" id="path1109" d="m 68.205209,-820.27652 c -1.261007,0.53519 -2.502608,1.11441 -3.788863,1.58937 -0.991929,0.36628 -1.787072,0.60536 -2.790781,0.923 -1.343657,0.40089 -2.699825,0.76531 -4.071386,1.05898 0,0 0.538632,2.19561 0.538632,2.19561 v 0 c 1.405591,-0.38064 2.797298,-0.81211 4.180868,-1.2653 2.176914,-0.71867 4.336934,-1.48143 6.497603,-2.24585 0,0 -0.566073,-2.25581 -0.566073,-2.25581 z" />
    <path style="fill:#4d4d4d;fill-opacity:1;stroke:none;stroke-width:0.465836;stroke-linecap:round;stroke-linejoin:round" id="path1111" d="m 57.102941,-819.58076 c 2.466054,1.04643 4.845295,2.27759 7.212241,3.52763 1.284956,0.68412 2.514158,1.46178 3.734907,2.25158 0,0 1.129127,-1.80667 1.129127,-1.80667 v 0 c -1.28976,-0.76762 -2.583787,-1.52849 -3.908606,-2.23526 -1.436817,-0.76321 -1.738443,-0.92771 -3.178152,-1.67547 -0.936457,-0.48637 -1.882094,-0.95527 -2.814031,-1.45019 -0.334289,-0.17753 -0.657619,-0.3753 -0.994146,-0.54858 -0.236833,-0.12195 -0.483281,-0.22439 -0.724919,-0.33658 0,0 -0.456421,2.27354 -0.456421,2.27354 z" />
    <path style="fill:#4d4d4d;fill-opacity:1;stroke:none;stroke-width:0.465836;stroke-linecap:round;stroke-linejoin:round" id="path1115" d="m 65.393489,-822.17154 c -0.0526,0.21154 -0.09702,0.42526 -0.157789,0.6346 -0.309536,1.0663 -0.733085,2.09877 -1.098797,3.14627 -0.408444,1.16988 -0.416017,1.22111 -0.785259,2.38192 -0.374569,1.19438 -0.676803,2.41503 -1.154432,3.57445 0,0 2.132119,0.7942 2.132119,0.7942 v 0 c 0.424597,-1.22402 0.712358,-2.48934 1.069522,-3.73371 0.283034,-0.92295 0.40885,-1.36981 0.737031,-2.28766 0.463794,-1.29713 1.029607,-2.556 1.465618,-3.86309 0,0 -2.208013,-0.64698 -2.208013,-0.64698 z" />
    <path style="fill:#4d4d4d;fill-opacity:1;stroke:none;stroke-width:0.465836;stroke-linecap:round;stroke-linejoin:round" id="path1117" d="m 73.395406,-830.51482 c 0.874354,1.39635 1.609616,2.87493 2.391556,4.32377 0,0 1.319504,-0.71701 1.319504,-0.71701 v 0 c -0.814148,-1.46565 -1.581387,-2.95484 -2.319979,-4.4596 0,0 -1.391081,0.85284 -1.391081,0.85284 z" />
    <path style="fill:#4d4d4d;fill-opacity:1;stroke:none;stroke-width:0.465836;stroke-linecap:round;stroke-linejoin:round" id="path1119" d="m 76.589211,-830.52993 c -0.103268,0.0905 -0.200363,0.18857 -0.3098,0.27159 -1.234061,0.93623 -2.729766,1.61499 -4.129767,2.26659 0,0 0.65414,1.3485 0.65414,1.3485 v 0 c 0.93626,-0.46561 1.874817,-0.92882 2.797024,-1.42176 0.532119,-0.28442 1.15392,-0.62573 1.662643,-0.96336 0.165158,-0.10961 0.318541,-0.23588 0.477812,-0.35383 0,0 -1.152052,-1.14773 -1.152052,-1.14773 z" />
    <path style="fill:#4d4d4d;fill-opacity:1;stroke:none;stroke-width:0.465836;stroke-linecap:round;stroke-linejoin:round" id="path1121" d="m 70.438761,-829.73497 c 1.293066,0.69635 2.600804,1.3614 3.92656,1.99399 1.503501,0.68395 3.039441,1.30342 4.605582,1.83084 0,0 0.468816,-1.5085 0.468816,-1.5085 v 0 c -1.520392,-0.42281 -3.002675,-0.9821 -4.436476,-1.63859 -0.892361,-0.43284 -1.056401,-0.49681 -1.9142,-0.97346 -0.55408,-0.30789 -0.8714,-0.5103 -1.394748,-0.83075 -0.153529,-0.094 -0.302982,-0.19501 -0.46088,-0.28153 -0.127582,-0.0699 -0.262921,-0.12473 -0.39438,-0.1871 0,0 -0.400274,1.5951 -0.400274,1.5951 z" />
    <path style="fill:#4d4d4d;fill-opacity:1;stroke:none;stroke-width:0.465836;stroke-linecap:round;stroke-linejoin:round" id="path1123" d="m 75.628769,-831.25611 c -0.672607,1.30553 -1.478101,2.53858 -2.146671,3.84629 -0.159502,0.31198 -0.303158,0.63176 -0.454736,0.94764 -0.470183,1.08583 -0.253132,0.5595 -0.655154,1.57733 0,0 1.433325,0.53729 1.433325,0.53729 v 0 c 0.345005,-0.96001 0.157553,-0.46479 0.566339,-1.48416 0.136287,-0.29342 0.263396,-0.59125 0.408863,-0.88027 0.642859,-1.27722 1.438939,-2.47007 2.219187,-3.66597 0,0 -1.371153,-0.87815 -1.371153,-0.87815 z" />
    <path style="fill:#4d4d4d;fill-opacity:1;stroke:none;stroke-width:0.465836;stroke-linecap:round;stroke-linejoin:round" id="path1125" d="m 51.423877,-842.85854 c 0.07737,0.10349 0.148752,0.2117 0.232094,0.31047 0.525255,0.62254 1.137736,1.17628 1.72449,1.73864 1.073635,1.02902 0.515095,0.48496 1.563495,1.52096 0.607498,0.60913 1.192383,1.23975 1.774531,1.87273 0,0 0.510223,-0.48535 0.510223,-0.48535 v 0 c -0.612048,-0.61297 -1.222768,-1.22725 -1.836095,-1.83896 -0.517528,-0.50927 -1.041351,-1.01226 -1.553027,-1.52737 -0.54557,-0.54923 -1.086714,-1.10612 -1.546389,-1.73036 -0.04113,-0.0558 -0.07528,-0.11649 -0.112924,-0.17474 0,0 -0.756398,0.31398 -0.756398,0.31398 z" />
    <path style="fill:#4d4d4d;fill-opacity:1;stroke:none;stroke-width:0.465836;stroke-linecap:round;stroke-linejoin:round" id="path1127" d="m 56.06469,-841.92252 c -0.253833,0.11169 -0.513781,0.20883 -0.768804,0.31766 -0.234426,0.10004 -0.47432,0.18933 -0.699924,0.30781 -0.862643,0.45302 -1.63238,1.0528 -2.404646,1.63916 -0.369935,0.27415 -0.716689,0.57783 -1.082856,0.85674 -0.110337,0.084 -0.225575,0.1615 -0.338363,0.24225 0,0 0.464879,0.59524 0.464879,0.59524 v 0 c 0.460152,-0.38379 0.903551,-0.78615 1.366706,-1.16655 0.563017,-0.44202 0.872131,-0.70823 1.487441,-1.09202 0.250487,-0.15624 0.506966,-0.30454 0.773684,-0.43134 0.487038,-0.23155 1.016673,-0.36244 1.52816,-0.52597 0,0 -0.326277,-0.74298 -0.326277,-0.74298 z" />
    <path style="fill:#4d4d4d;fill-opacity:1;stroke:none;stroke-width:0.465836;stroke-linecap:round;stroke-linejoin:round" id="path1129" d="m 53.309009,-842.66281 c 0.06882,1.15389 0.05137,2.3103 0.03235,3.46535 -0.0091,0.54412 -0.02796,1.08799 -0.04756,1.63181 0,0 0.756268,0.009 0.756268,0.009 v 0 c -0.0064,-0.54397 -0.01179,-1.08797 -0.0068,-1.63198 0.01064,-1.1583 0.02616,-2.31719 0.08278,-3.47428 0,0 -0.81701,0 -0.81701,0 z" />
    <path style="fill:#4d4d4d;fill-opacity:1;stroke:none;stroke-width:0.465836;stroke-linecap:round;stroke-linejoin:round" id="path1131" d="m 50.269585,-841.14073 c 0.591706,0.22021 1.224749,0.30835 1.847144,0.39318 0.129736,0.0177 1.808923,0.22927 1.885577,0.23894 0.885803,0.11262 1.768213,0.2491 2.650499,0.38578 0,0 0.09556,-0.68553 0.09556,-0.68553 v 0 c -0.886868,-0.10806 -1.773228,-0.2201 -2.657772,-0.34595 -0.594265,-0.0863 -1.260943,-0.17811 -1.855138,-0.28304 -0.489392,-0.0864 -0.998345,-0.18052 -1.462781,-0.36708 -0.05856,-0.0235 -0.112491,-0.0572 -0.168736,-0.0858 0,0 -0.334352,0.74948 -0.334352,0.74948 z" />
    <path style="fill:#4d4d4d;fill-opacity:1;stroke:none;stroke-width:0.465836;stroke-linecap:round;stroke-linejoin:round" id="path1133" d="m 179.06092,-778.57915 c 0.79632,1.576 2.10411,2.79798 3.36482,4.00325 0.71085,0.67436 1.44949,1.31785 2.19615,1.95214 0,0 0.43644,-0.53402 0.43644,-0.53402 v 0 c -0.20583,-0.15916 -0.41536,-0.31367 -0.61748,-0.47748 -0.69007,-0.55926 -0.90554,-0.771 -1.58489,-1.38365 -1.1008,-1.06992 -2.24502,-2.14878 -2.91805,-3.55171 -0.048,-0.1 -0.0838,-0.20526 -0.12577,-0.30789 0,0 -0.75122,0.29936 -0.75122,0.29936 z" />
    <path style="fill:#4d4d4d;fill-opacity:1;stroke:none;stroke-width:0.465836;stroke-linecap:round;stroke-linejoin:round" id="path1135" d="m 184.17216,-778.45132 c -0.49354,0.31509 -1.00063,0.60811 -1.47556,0.9518 -0.51337,0.3715 -0.66468,0.51565 -1.15461,0.92967 -0.67671,0.60372 -1.3273,1.23536 -1.99485,1.849 0,0 0.50917,0.52942 0.50917,0.52942 v 0 c 0.63296,-0.62727 1.26236,-1.25939 1.93533,-1.84469 0.43853,-0.36261 0.639,-0.54525 1.10217,-0.86448 0.47415,-0.3268 0.98328,-0.59817 1.50078,-0.84932 0,0 -0.42243,-0.7014 -0.42243,-0.7014 z" />
    <path style="fill:#4d4d4d;fill-opacity:1;stroke:none;stroke-width:0.465836;stroke-linecap:round;stroke-linejoin:round" id="path1137" d="m 179.12469,-777.34753 c 0.67305,0.34072 1.33736,0.70264 1.97735,1.10242 0.21011,0.13124 0.41511,0.27045 0.62266,0.40568 0.60972,0.40696 1.13891,0.91297 1.62736,1.45537 0.1358,0.1508 0.26259,0.30941 0.39389,0.46412 0,0 0.54355,-0.47225 0.54355,-0.47225 v 0 c -0.66527,-0.7381 -1.34643,-1.47245 -2.1802,-2.02745 -0.88459,-0.58751 -1.78698,-1.14693 -2.69499,-1.69731 0,0 -0.28962,0.76942 -0.28962,0.76942 z" />
    <path style="fill:#4d4d4d;fill-opacity:1;stroke:none;stroke-width:0.465836;stroke-linecap:round;stroke-linejoin:round" id="path1139" d="m 182.32122,-778.65536 c -0.58089,1.16347 -0.95257,2.41793 -1.30968,3.66335 -0.26687,0.96968 -0.48376,1.95183 -0.69285,2.93512 0,0 0.71865,0.13554 0.71865,0.13554 v 0 c 0.16213,-0.97028 0.35056,-1.93648 0.6165,-2.88473 0.0851,-0.28677 0.16338,-0.57565 0.25531,-0.86032 0.2584,-0.80022 0.56329,-1.62248 0.97744,-2.35814 0.037,-0.0657 0.0801,-0.12783 0.12021,-0.19175 0,0 -0.68558,-0.43907 -0.68558,-0.43907 z" />
    <path style="fill:#4d4d4d;fill-opacity:1;stroke:none;stroke-width:0.465836;stroke-linecap:round;stroke-linejoin:round" id="path1141" d="m 196.84443,-825.0567 c 0.0373,0.10402 0.0469,0.2225 0.11176,0.31207 0.16828,0.23238 0.75619,0.71392 0.95606,0.87617 0.22568,0.18321 0.4574,0.35891 0.68545,0.53917 0.68972,0.54515 0.66143,0.52487 1.32249,1.0578 0.17375,0.14394 0.3475,0.28789 0.52125,0.43184 0,0 0.4458,-0.5525 0.4458,-0.5525 v 0 c -0.17955,-0.13899 -0.3591,-0.27797 -0.53864,-0.41695 -0.66498,-0.51589 -1.33234,-1.02997 -1.96174,-1.58925 -0.16089,-0.14297 -0.31646,-0.29184 -0.47048,-0.44214 -0.0787,-0.0768 -0.14441,-0.1668 -0.22745,-0.23894 -0.008,-0.007 -0.0143,0.0152 -0.0214,0.0227 0,0 -0.82306,0 -0.82306,0 z" />
    <path style="fill:#4d4d4d;fill-opacity:1;stroke:none;stroke-width:0.465836;stroke-linecap:round;stroke-linejoin:round" id="path1143" d="m 200.88858,-825.56047 c -0.65059,0.57855 -1.21204,1.24703 -1.77064,1.91137 -1.34503,1.59961 0.0662,-0.067 -1.21107,1.43833 -0.16455,0.18855 -0.32911,0.37709 -0.49366,0.56564 0,0 0.53504,0.4469 0.53504,0.4469 v 0 c 0.1581,-0.19486 0.3162,-0.38972 0.47429,-0.58458 0.58904,-0.71489 1.17423,-1.43041 1.81419,-2.10144 0.24903,-0.26112 0.59568,-0.60279 0.88139,-0.8429 0.0862,-0.0724 0.17987,-0.13546 0.2698,-0.20319 0,0 -0.49934,-0.63013 -0.49934,-0.63013 z" />
    <path style="fill:#4d4d4d;fill-opacity:1;stroke:none;stroke-width:0.465836;stroke-linecap:round;stroke-linejoin:round" id="path1145" d="m 198.12273,-825.0617 c 0.37044,1.12138 0.61211,2.27822 0.84167,3.4346 0.16257,0.8294 0.0867,0.43004 0.22861,1.19788 0,0 0.71828,-0.14313 0.71828,-0.14313 v 0 c -0.16583,-0.76511 -0.0803,-0.36731 -0.25613,-1.19346 -0.24166,-1.17267 -0.49461,-2.34273 -0.74952,-3.51255 0,0 -0.78291,0.21666 -0.78291,0.21666 z" />
    <path style="fill:#4d4d4d;fill-opacity:1;stroke:none;stroke-width:0.465836;stroke-linecap:round;stroke-linejoin:round" id="path1147" d="m 195.58322,-822.38214 c 0.28243,-0.018 0.18897,-0.008 0.57719,-0.0629 0.64137,-0.0904 0.60391,-0.10014 1.30754,-0.1816 0.82781,-0.0958 1.02094,-0.10199 1.86995,-0.167 0.91147,-0.0641 1.82171,-0.14333 2.73173,-0.22495 0,0 -0.0706,-0.68173 -0.0706,-0.68173 v 0 c -0.90025,0.10461 -1.80131,0.20396 -2.70668,0.25454 -0.69923,0.0435 -1.20684,0.0722 -1.90028,0.12646 -0.24914,0.0195 -0.49789,0.0436 -0.74688,0.0648 -0.21583,0.0184 -0.63257,0.0597 -0.88182,0.0614 -0.0602,5.2e-4 -0.12008,-0.008 -0.18011,-0.0115 0,0 0,0.82239 0,0.82239 z" />
    <path style="fill:#4d4d4d;fill-opacity:1;stroke:none;stroke-width:0.465836;stroke-linecap:round;stroke-linejoin:round" id="path1149" d="m 115.05247,-902.28943 c 2.04986,1.062 3.89045,2.47087 5.72728,3.85485 0.2879,0.21903 0.5758,0.43805 0.86371,0.65707 0,0 0.58279,-0.78974 0.58279,-0.78974 v 0 c -0.29473,-0.20772 -0.58947,-0.41543 -0.8842,-0.62315 -1.88149,-1.36137 -3.73396,-2.76393 -5.66814,-4.0515 0,0 -0.62144,0.95247 -0.62144,0.95247 z" />
    <path style="fill:#4d4d4d;fill-opacity:1;stroke:none;stroke-width:0.465836;stroke-linecap:round;stroke-linejoin:round" id="path1151" d="m 119.41882,-904.58335 c -0.8489,1.34281 -1.72398,2.66963 -2.58686,4.0038 -0.42514,0.65824 -0.83338,1.32703 -1.24287,1.99496 0,0 0.92381,0.5338 0.92381,0.5338 v 0 c 0.37076,-0.67209 0.74137,-1.34475 1.15439,-1.99248 0.85683,-1.32444 1.72634,-2.64256 2.70037,-3.88565 0,0 -0.94884,-0.65443 -0.94884,-0.65443 z" />
    <path style="fill:#4d4d4d;fill-opacity:1;stroke:none;stroke-width:0.465836;stroke-linecap:round;stroke-linejoin:round" id="path1153" d="m 116.93567,-904.79327 c 0.10344,0.40833 0.15849,0.60472 0.24148,1.06038 0.11176,0.61365 0.21822,1.42599 0.29428,2.03074 0.10799,0.8586 0.20533,1.7185 0.30864,2.57768 0.19921,1.59101 0.0964,0.82356 0.30575,2.30272 0,0 0.97452,-0.15115 0.97452,-0.15115 v 0 c -0.24775,-1.44545 -0.13031,-0.69244 -0.34674,-2.25988 -0.0496,-0.43674 -0.10207,-0.87316 -0.14876,-1.31022 -0.16077,-1.50523 -0.27412,-3.0164 -0.50856,-4.51295 0,0 -1.12061,0.26268 -1.12061,0.26268 z" />
    <path style="fill:#4d4d4d;fill-opacity:1;stroke:none;stroke-width:0.465836;stroke-linecap:round;stroke-linejoin:round" id="path1155" d="m 113.03208,-900.81134 c 1.98299,0.0532 3.9674,0.047 5.95101,0.0721 0,0 0.0132,-0.91979 0.0132,-0.91979 v 0 c -1.19397,-0.0188 -1.61549,-0.0186 -2.80407,-0.0647 -0.90534,-0.0351 -1.82016,-0.0699 -2.71943,-0.19043 -0.0925,-0.0124 -0.18358,-0.0335 -0.27536,-0.0502 0,0 -0.16532,1.15292 -0.16532,1.15292 z" />
    <path style="fill:#4d4d4d;fill-opacity:1;stroke:none;stroke-width:0.465836;stroke-linecap:round;stroke-linejoin:round" id="path1157" d="m 86.339795,-877.83411 c -0.02175,0.003 -0.0776,-0.009 -0.06527,0.009 0.08387,0.12321 0.20222,0.21934 0.298421,0.33325 0.205948,0.24385 0.408953,0.49023 0.607845,0.73983 0.976452,1.22538 1.903272,2.48923 2.840661,3.74418 0.763451,1.03511 1.526528,2.07039 2.297686,3.0998 0,0 0.783179,-0.61216 0.783179,-0.61216 v 0 c -0.815105,-0.98448 -1.617909,-1.97896 -2.376968,-3.00751 -1.088297,-1.46809 -0.899451,-1.19442 -1.944396,-2.67876 -0.267711,-0.38028 -0.532339,-0.76271 -0.79739,-1.14485 -0.01848,-0.0266 -0.760912,-1.12797 -0.924729,-1.29719 -0.116232,-0.12007 -0.265327,-0.20353 -0.397989,-0.3053 0,0 -0.321051,1.11947 -0.321051,1.11947 z" />
    <path style="fill:#4d4d4d;fill-opacity:1;stroke:none;stroke-width:0.465836;stroke-linecap:round;stroke-linejoin:round" id="path1159" d="m 93.661086,-877.29764 c -0.144158,0.0678 -0.292682,0.12713 -0.432474,0.20349 -0.407086,0.22237 -1.178263,0.7173 -1.524611,0.95246 -1.043662,0.70864 -2.0206,1.49096 -2.995058,2.28957 -0.274427,0.23736 -0.548852,0.47472 -0.823279,0.71208 0,0 0.656312,0.73317 0.656312,0.73317 v 0 c 0.259328,-0.23687 0.518652,-0.47374 0.77798,-0.71061 0.309826,-0.25766 0.613626,-0.5227 0.929475,-0.773 1.055793,-0.83668 2.184814,-1.62817 3.417829,-2.18665 0.08882,-0.0402 0.183434,-0.0663 0.27515,-0.0994 0,0 -0.281324,-1.12108 -0.281324,-1.12108 z" />
    <path style="fill:#4d4d4d;fill-opacity:1;stroke:none;stroke-width:0.465836;stroke-linecap:round;stroke-linejoin:round" id="path1161" d="m 91.04758,-878.88666 c 0.177074,1.89537 -0.233401,3.77663 -0.602098,5.62518 -0.335283,1.46745 -0.159757,0.77712 -0.516332,2.07357 0,0 0.97522,0.24266 0.97522,0.24266 v 0 c 0.306698,-1.34842 0.153086,-0.63585 0.455272,-2.13891 0.219393,-1.14576 0.313425,-1.61219 0.515859,-2.77112 0.07583,-0.43417 0.160123,-0.86718 0.218726,-1.30399 0.07702,-0.57402 0.08016,-1.15114 0.120768,-1.72739 0,0 -1.167415,0 -1.167415,0 z" />
    <path style="fill:#4d4d4d;fill-opacity:1;stroke:none;stroke-width:0.465836;stroke-linecap:round;stroke-linejoin:round" id="path1163" d="m 85.067945,-875.34541 c 0.08646,0.0326 0.17108,0.0706 0.259388,0.0978 0.626376,0.19328 1.261305,0.35795 1.890507,0.5419 1.406509,0.41122 2.809471,0.83438 4.215919,1.24586 1.285838,0.38533 2.585551,0.71894 3.89562,1.01074 0,0 0.205343,-1.02789 0.205343,-1.02789 v 0 c -1.295337,-0.22432 -2.579833,-0.50395 -3.845892,-0.85973 -1.76382,-0.50237 -3.528715,-1.0206 -5.244695,-1.67113 -0.517276,-0.1961 -0.512985,-0.20035 -0.854829,-0.37637 0,0 -0.521361,1.03881 -0.521361,1.03881 z" />
    <path style="fill:#4d4d4d;fill-opacity:1;stroke:none;stroke-width:0.465836;stroke-linecap:round;stroke-linejoin:round" id="path1165" d="m 80.943385,-897.65178 c 1.560628,2.10269 3.043674,4.2611 4.532958,6.41412 0.953418,1.36939 0.497798,0.71784 1.366131,1.95515 0,0 1.192348,-0.86635 1.192348,-0.86635 v 0 c -0.906026,-1.18642 -0.43382,-0.55851 -1.413507,-1.88604 -1.519533,-2.13554 -3.0221,-4.28977 -4.354482,-6.54758 0,0 -1.323448,0.9307 -1.323448,0.9307 z" />
    <path style="fill:#4d4d4d;fill-opacity:1;stroke:none;stroke-width:0.465836;stroke-linecap:round;stroke-linejoin:round" id="path1167" d="m 87.79859,-898.11715 c -1.20617,1.5552 -2.501193,3.03965 -3.645244,4.64321 -0.353534,0.49554 -0.683991,1.00702 -1.02599,1.51053 -0.292227,0.44313 -0.584454,0.88626 -0.876682,1.32939 0,0 1.165413,0.74239 1.165413,0.74239 v 0 c 0.27478,-0.44029 0.54956,-0.88059 0.824338,-1.32089 0.32842,-0.48282 0.641443,-0.9764 0.985258,-1.44847 1.165768,-1.60064 2.520298,-3.04424 3.880122,-4.47943 0,0 -1.307215,-0.97673 -1.307215,-0.97673 z" />
    <path style="fill:#4d4d4d;fill-opacity:1;stroke:none;stroke-width:0.465836;stroke-linecap:round;stroke-linejoin:round" id="path1169" d="m 84.644354,-899.39531 c 0.07708,1.4635 0.0838,2.92918 0.181739,4.39191 0.05924,0.88482 0.227764,2.77972 0.303506,3.65437 0.217951,2.16685 0.110191,1.13285 0.321351,3.10221 0,0 1.40383,-0.1761 1.40383,-0.1761 v 0 c -0.281143,-1.92623 -0.146516,-0.91419 -0.395941,-3.03715 -0.04966,-0.60795 -0.109516,-1.21516 -0.148999,-1.82385 -0.131937,-2.03395 -0.167864,-4.07615 -0.046,-6.11139 0,0 -1.619489,0 -1.619489,0 z" />
    <path style="fill:#4d4d4d;fill-opacity:1;stroke:none;stroke-width:0.465836;stroke-linecap:round;stroke-linejoin:round" id="path1171" d="m 81.344037,-893.46147 c 0.182857,0.0899 0.358601,0.19581 0.548575,0.26958 1.047593,0.40677 2.20698,0.56257 3.311537,0.71562 1.224297,0.16963 1.960181,0.22982 3.194445,0.35166 1.944465,0.1729 1.002386,0.0939 2.826084,0.23872 0,0 0.09588,-1.42262 0.09588,-1.42262 v 0 c -1.796706,-0.0974 -0.869222,-0.038 -2.782203,-0.18179 -1.472033,-0.15384 -2.937058,-0.30755 -4.382865,-0.63612 -0.518084,-0.11774 -1.049552,-0.26347 -1.541434,-0.47281 -0.0963,-0.041 -0.183872,-0.0999 -0.275808,-0.14986 0,0 -0.99421,1.28762 -0.99421,1.28762 z" />
    <path style="fill:#4d4d4d;fill-opacity:1;stroke:none;stroke-width:0.465836;stroke-linecap:round;stroke-linejoin:round" id="path1173" d="m 176.43683,-796.02195 c 0.91326,0.82304 1.56853,1.88598 2.20995,2.9203 0.7138,1.15102 0.81739,1.35671 1.4847,2.52519 0.55383,0.98553 1.08684,1.9824 1.622,2.97804 0,0 1.30987,-0.74141 1.30987,-0.74141 v 0 c -0.58542,-0.96861 -1.15796,-1.94464 -1.71298,-2.93095 -0.63448,-1.10016 -0.84586,-1.47635 -1.50039,-2.57203 -0.63017,-1.05489 -1.25717,-2.15074 -2.0746,-3.07849 -0.16217,-0.18405 -0.3528,-0.34113 -0.5292,-0.5117 0,0 -0.80935,1.41105 -0.80935,1.41105 z" />
    <path style="fill:#4d4d4d;fill-opacity:1;stroke:none;stroke-width:0.465836;stroke-linecap:round;stroke-linejoin:round" id="path1175" d="m 183.52794,-795.97588 c -0.13136,0.0963 -0.25997,0.1964 -0.39409,0.28883 -0.85973,0.59254 -1.09758,0.71509 -2.04434,1.34385 -1.4375,0.95466 -2.84896,1.94631 -4.25585,2.94486 -1.37239,0.99538 -0.74194,0.53608 -1.89221,1.37674 0,0 0.93084,1.16815 0.93084,1.16815 v 0 c 1.05013,-0.89971 0.46679,-0.41581 1.75985,-1.43984 1.37223,-0.99451 2.74976,-1.97047 4.19798,-2.85402 1.00172,-0.61114 1.21952,-0.69532 2.16,-1.23657 0.19868,-0.11435 0.39342,-0.23536 0.59013,-0.35303 0,0 -1.05231,-1.23897 -1.05231,-1.23897 z" />
    <path style="fill:#4d4d4d;fill-opacity:1;stroke:none;stroke-width:0.465836;stroke-linecap:round;stroke-linejoin:round" id="path1177" d="m 180.08379,-796.03508 c 0.26296,2.09232 -0.0869,4.17679 -0.47009,6.23045 -0.32295,1.47004 -0.15545,0.77701 -0.49384,2.08115 0,0 1.45348,0.33985 1.45348,0.33985 v 0 c 0.29149,-1.36895 0.14484,-0.64626 0.43525,-2.16899 0.38725,-2.17988 0.76213,-4.37628 0.70739,-6.59861 0,0 -1.63219,0.11615 -1.63219,0.11615 z" />
    <path style="fill:#4d4d4d;fill-opacity:1;stroke:none;stroke-width:0.465836;stroke-linecap:round;stroke-linejoin:round" id="path1179" d="m 175.40087,-791.79966 c 0.18603,0.0214 0.37118,0.0527 0.55808,0.0642 0.51173,0.0316 1.80209,0.0297 2.20033,0.0316 0.56345,0.003 1.1269,0.003 1.69034,0.007 2.08309,0.0139 1.57418,0.0105 3.62514,0.0583 1.99108,0.0685 1.04259,0.0316 2.84557,0.10849 0,0 0.0328,-1.43123 0.0328,-1.43123 v 0 c -1.80655,-0.005 -0.85623,2.7e-4 -2.85095,-0.0183 -1.09649,-0.0189 -2.5265,-0.0391 -3.61936,-0.0766 -1.23686,-0.0425 -2.48032,-0.0931 -3.70861,-0.25446 -0.0848,-0.0111 -0.16826,-0.0305 -0.2524,-0.0457 0,0 -0.52094,1.55698 -0.52094,1.55698 z" />
    <path style="fill:#4d4d4d;fill-opacity:1;stroke:none;stroke-width:0.465836;stroke-linecap:round;stroke-linejoin:round" id="path1181" d="m 219.51466,-813.70339 c 0.0821,0.24901 0.1742,0.49498 0.24642,0.74702 0.36633,1.27857 0.60732,2.59089 0.84137,3.89823 0.15434,0.86211 0.32336,1.88206 0.46936,2.75175 0,0 1.40888,-0.25192 1.40888,-0.25192 v 0 c -0.4859,-2.52324 -0.86141,-5.06739 -1.41809,-7.57687 0,0 -1.54794,0.43179 -1.54794,0.43179 z" />
    <path style="fill:#4d4d4d;fill-opacity:1;stroke:none;stroke-width:0.465836;stroke-linecap:round;stroke-linejoin:round" id="path1183" d="m 221.83164,-812.55738 c -0.0515,0.0934 -0.0954,0.19131 -0.15449,0.28007 -0.6496,0.97538 -1.46581,1.83379 -2.2536,2.69655 -1.10918,1.21473 -1.18661,1.28454 -2.31068,2.46735 -1.22166,1.26238 -0.64676,0.67876 -1.72076,1.75471 0,0 1.07941,1.00666 1.07941,1.00666 v 0 c 1.00766,-1.13926 0.46333,-0.52914 1.63557,-1.82808 1.21324,-1.28894 1.09442,-1.16967 2.33344,-2.45756 0.87774,-0.91236 1.80699,-1.80283 2.5893,-2.80175 0.10924,-0.13948 0.1972,-0.29427 0.29579,-0.44141 0,0 -1.49398,-0.67654 -1.49398,-0.67654 z" />
    <path style="fill:#4d4d4d;fill-opacity:1;stroke:none;stroke-width:0.465836;stroke-linecap:round;stroke-linejoin:round" id="path1185" d="m 221.15524,-815.3254 c 0.0954,1.65856 -0.2218,3.30533 -0.48621,4.93483 -0.30607,1.747 -0.14501,0.90042 -0.47914,2.54051 0,0 1.42042,0.27125 1.42042,0.27125 v 0 c 0.3028,-1.66996 0.14783,-0.81205 0.46471,-2.57376 0.30629,-1.71325 0.6697,-3.42774 0.72393,-5.17283 0,0 -1.64371,0 -1.64371,0 z" />
    <path style="fill:#4d4d4d;fill-opacity:1;stroke:none;stroke-width:0.465836;stroke-linecap:round;stroke-linejoin:round" id="path1187" d="m 217.77592,-807.6731 c 0.214,-0.024 0.42855,-0.0437 0.642,-0.0722 1.2119,-0.16175 2.41618,-0.37925 3.6248,-0.56272 1.10341,-0.16751 1.43861,-0.20815 2.50972,-0.35195 0,0 -0.21388,-1.43466 -0.21388,-1.43466 v 0 c -1.29402,0.20926 -2.58817,0.41932 -3.88896,0.58361 -0.626,0.0791 -1.48453,0.17589 -2.13746,0.21216 -0.17848,0.01 -0.35748,0.005 -0.53622,0.007 0,0 0,1.61825 0,1.61825 z" />
    <path style="fill:#4d4d4d;fill-opacity:1;stroke:none;stroke-width:0.465836;stroke-linecap:round;stroke-linejoin:round" id="path1189" d="m 182.16302,-815.21963 c 2.2416,2.43087 4.23119,5.08348 6.2571,7.69253 0.39937,0.52207 0.79874,1.04414 1.19811,1.56621 0,0 1.58005,-1.22634 1.58005,-1.22634 v 0 c -0.41022,-0.51322 -0.82043,-1.02643 -1.23065,-1.53965 -1.35927,-1.72972 -2.70904,-3.46634 -4.01593,-5.23598 -0.34248,-0.46375 -0.67166,-0.93715 -1.01335,-1.40149 -0.40977,-0.55688 -0.72748,-0.96186 -1.13581,-1.48865 0,0 -1.63952,1.63337 -1.63952,1.63337 z" />
    <path style="fill:#4d4d4d;fill-opacity:1;stroke:none;stroke-width:0.465836;stroke-linecap:round;stroke-linejoin:round" id="path1191" d="m 190.46832,-815.89118 c -0.15872,0.17723 -0.31178,0.35966 -0.47615,0.5317 -1.11047,1.16228 -2.29994,2.25137 -3.46666,3.35626 -3.08786,2.92423 0.0981,-0.0859 -2.85397,2.7013 -0.39482,0.38208 -0.78965,0.76416 -1.18448,1.14625 0,0 1.46105,1.45502 1.46105,1.45502 v 0 c 0.37347,-0.38362 0.74693,-0.76723 1.12039,-1.15085 2.28072,-2.20759 4.62014,-4.34914 7.03591,-6.40972 0,0 -1.63609,-1.62996 -1.63609,-1.62996 z" />
    <path style="fill:#4d4d4d;fill-opacity:1;stroke:none;stroke-width:0.465836;stroke-linecap:round;stroke-linejoin:round" id="path1193" d="m 186.82817,-816.30047 c -0.57978,2.71755 -0.7714,5.4983 -0.96921,8.26369 -0.15079,2.13866 -0.0804,1.11091 -0.21216,3.08318 0,0 2.10233,0.10594 2.10233,0.10594 v 0 c 0.0672,-1.94627 0.0245,-0.93258 0.1321,-3.04088 0.19784,-2.59494 0.38213,-5.23405 1.16018,-7.73348 0,0 -2.21324,-0.67845 -2.21324,-0.67845 z" />
    <path style="fill:#4d4d4d;fill-opacity:1;stroke:none;stroke-width:0.465836;stroke-linecap:round;stroke-linejoin:round" id="path1195" d="m 179.6264,-810.08146 c 3.46871,-0.74808 7.01162,-1.01544 10.54623,-1.23023 0.55749,-0.0252 1.11498,-0.0505 1.67247,-0.0757 0,0 -0.13063,-2.04466 -0.13063,-2.04466 v 0 c -0.5612,0.0457 -1.1224,0.0914 -1.68359,0.13709 -2.16917,0.17576 -4.33985,0.33871 -6.50729,0.53487 -0.64978,0.0588 -1.29878,0.126 -1.94817,0.189 -0.47429,0.0496 -0.94801,0.1049 -1.42287,0.14873 -0.27669,0.0255 -0.55433,0.0396 -0.8315,0.0594 0,0 0.30535,2.28154 0.30535,2.28154 z" />
  </g>
</svg>
