<svg xmlns="http://www.w3.org/2000/svg" width="425" height="1110" viewBox="0 0 112.448 293.688"><path d="M113.556 238.846v-114.52l-8.555-11.34-8.557 11.34v114.52" style="fill:none;stroke:#000;stroke-width:3.791;stroke-linecap:butt;stroke-linejoin:miter;stroke-miterlimit:4;stroke-dasharray:none;stroke-opacity:1" transform="matrix(.76005 0 0 .7582 -23.581 -.616)"/><path d="M115.033 235.142c10.238 0 14.25 18.682 14.25 33.817v96.183h-15.81v-96.183c0-5.238-1.9-18.008-8.264-18.008-6.363 0-8.263 12.77-8.263 18.008v96.183h-15.81v-96.183c0-15.135 4.011-33.817 14.25-33.817m0 0V124.325s-8.393-5.158-12.431 21.678c-4.33 28.773-4.326 104.24-4.326 104.24H62.82c0-13.47-1.042-81.542 4.667-116.125 5.065-30.688 16.4-29.027 24.195-29.027 2.914 0 13.528.075 13.528.075s10.615-.075 13.528-.075c7.795 0 19.13-1.66 24.196 29.027 5.709 34.583 4.667 102.655 4.667 116.126h-15.81s.003-75.468-4.326-104.24c-4.038-26.837-12.43-21.679-12.43-21.679v110.817h-9.825z" style="fill:#0f0;fill-opacity:1;stroke:#000;stroke-width:3.791;stroke-linecap:round;stroke-linejoin:round;stroke-miterlimit:4;stroke-dasharray:none;stroke-opacity:1" transform="matrix(.76005 0 0 .7582 -23.581 -.616)"/><path style="fill:#fff;stroke:#000;stroke-width:15.5606;stroke-linecap:butt;stroke-linejoin:miter;stroke-miterlimit:4;stroke-dasharray:none;stroke-opacity:1" d="M254.893 567.594c-40.646 0-58.136 76.618-65.676 141.068-50.255-39.83-115.605-80.592-144.676-51.521-28.311 28.311 12.348 93.578 52.008 143.953C32.063 808.423-44.69 825.89-44.69 867.627c0 40.646 76.616 58.136 141.066 65.676-39.83 50.254-80.59 115.605-51.52 144.675 28.312 28.312 93.58-12.348 143.954-52.007 7.328 64.485 24.796 141.238 66.533 141.238 40.646 0 58.136-76.616 65.676-141.066 50.254 39.83 115.605 80.59 144.675 51.52 28.312-28.312-12.348-93.58-52.007-143.954 64.485-7.329 141.238-24.796 141.238-66.533 0-40.646-76.618-58.136-141.069-65.676 39.83-50.255 80.593-115.605 51.522-144.676-28.311-28.311-93.579 12.349-143.953 52.008-7.33-64.485-24.797-141.238-66.533-141.238zm-28.688 228.193h57.824l42.703 42.703v57.824l-42.705 42.704h-57.82l-42.705-42.706v-57.82z" transform="matrix(.18279 0 0 .18235 9.59 -102.08)"/><path d="M91.993 43.385C86.943 46.3 75.77 58.017 73.598 61.78c-1.509 5.631-1.125 21.817 0 26.014 2.915 5.05 14.632 16.222 18.395 18.395 5.631 1.509 21.817 1.125 26.014 0 5.049-2.915 16.222-14.632 18.395-18.395 1.509-5.631 1.125-21.817 0-26.014-2.915-5.049-14.632-16.222-18.395-18.395-5.631-1.509-21.817-1.124-26.014 0z" style="fill:#e3e35d;fill-opacity:1;stroke:#000;stroke-width:2.605;stroke-linecap:round;stroke-linejoin:round;stroke-miterlimit:4;stroke-dasharray:none;stroke-opacity:1" transform="matrix(.76005 0 0 .7582 -23.581 -.616)"/><path d="M122.306 65.052a5.953 9.632 0 0 1-4.654 11.226 5.953 9.632 0 0 1-7.009-7.357 5.953 9.632 0 0 1 4.44-11.451 5.953 9.632 0 0 1 7.144 7.005" style="fill:#fff;fill-opacity:1;fill-rule:nonzero;stroke:#fff;stroke-width:3;stroke-linecap:round;stroke-linejoin:round;stroke-miterlimit:4;stroke-dasharray:none;stroke-dashoffset:0;stroke-opacity:1;paint-order:normal" transform="matrix(.76005 0 0 .7582 -23.581 -.616)"/><path d="M116.705 66.682a.273.273 0 0 1-.213.318.273.273 0 0 1-.322-.208.273.273 0 0 1 .204-.325.273.273 0 0 1 .327.199" style="fill:#000;fill-opacity:1;fill-rule:nonzero;stroke:#000;stroke-width:1.5468;stroke-linecap:round;stroke-linejoin:round;stroke-miterlimit:4;stroke-dasharray:none;stroke-dashoffset:0;stroke-opacity:1;paint-order:normal" transform="matrix(.76005 0 0 .7582 -23.581 -.616)"/><path d="M108.917 54.495h13.452" style="fill:none;stroke:#000;stroke-width:1.21447;stroke-linecap:round;stroke-linejoin:round;stroke-miterlimit:4;stroke-dasharray:none;stroke-opacity:1" transform="matrix(.76005 0 0 .7582 -23.581 -.616)"/><path d="M99.394 65.053a5.953 9.632 0 0 1-4.654 11.225 5.953 9.632 0 0 1-7.009-7.357 5.953 9.632 0 0 1 4.44-11.451 5.953 9.632 0 0 1 7.144 7.005" style="fill:#fff;fill-opacity:1;fill-rule:nonzero;stroke:#fff;stroke-width:3;stroke-linecap:round;stroke-linejoin:round;stroke-miterlimit:4;stroke-dasharray:none;stroke-dashoffset:0;stroke-opacity:1;paint-order:normal" transform="matrix(.76005 0 0 .7582 -23.581 -.616)"/><path d="M93.793 66.682a.273.273 0 0 1-.213.318.273.273 0 0 1-.322-.208.273.273 0 0 1 .204-.325.273.273 0 0 1 .327.199" style="fill:#000;fill-opacity:1;fill-rule:nonzero;stroke:#000;stroke-width:1.5468;stroke-linecap:round;stroke-linejoin:round;stroke-miterlimit:4;stroke-dasharray:none;stroke-dashoffset:0;stroke-opacity:1;paint-order:normal" transform="matrix(.76005 0 0 .7582 -23.581 -.616)"/><path d="M88.014 54.495h13.667" style="fill:none;stroke:#000;stroke-width:1.2241;stroke-linecap:round;stroke-linejoin:round;stroke-miterlimit:4;stroke-dasharray:none;stroke-opacity:1" transform="matrix(.76005 0 0 .7582 -23.581 -.616)"/><path d="M100.482 87.915h9.036" style="fill:none;stroke:#000;stroke-width:1;stroke-linecap:round;stroke-linejoin:round;stroke-miterlimit:4;stroke-dasharray:none;stroke-opacity:1" transform="matrix(.76005 0 0 .7582 -23.581 -.616)"/><path d="M88.389 62.026c1.063-2.98 3.028-4.817 5.155-4.817 2.127 0 4.092 1.836 5.156 4.817zM111.3 62.026c1.064-2.98 3.03-4.816 5.156-4.816 2.127 0 4.093 1.836 5.156 4.816z" style="fill:#c9c900;fill-opacity:1;stroke:#c9c900;stroke-width:3;stroke-linecap:square;stroke-linejoin:miter;stroke-miterlimit:4;stroke-dasharray:none;stroke-opacity:1;paint-order:stroke fill markers" transform="matrix(.76005 0 0 .7582 -23.581 -.616)"/><path d="m81.137 365.142-21.496 7.7c-14.837 7.46-2.53 22.614 27.023 5.572 11.764 3.125 10.282-8.766 10.282-13.272zM129.282 365.142l21.496 7.7c14.837 7.46 2.53 22.614-27.023 5.572-11.765 3.125-10.283-8.766-10.283-13.272z" style="fill:#0f0;stroke:#000;stroke-width:3.791;stroke-linecap:round;stroke-linejoin:round;stroke-miterlimit:4;stroke-dasharray:none;stroke-opacity:1" transform="matrix(.76005 0 0 .7582 -23.581 -.616)"/><g style="display:inline"><path d="M78.63 250.244c-7.991 6.882-7.773 12.131-8.207 12.095 3.084 8.096 4.397 12.124 7.353 15.737 1.612 1.64-.041 4.003-1.823 2.812-2.32-2.255-11.732-11.885-12.661-16.535 0 0 1.96-8.798-.473-14.11z" style="fill:green;fill-opacity:1;stroke:#000;stroke-width:2.091;stroke-linecap:round;stroke-linejoin:round;stroke-miterlimit:4;stroke-dasharray:none;stroke-opacity:1" transform="matrix(-.76005 0 0 .7582 136.347 -.616)"/><path d="M78.63 250.244c-2.264 11.305-1.013 9.87-.58 23.454.21 1.532-1.62 3.277-3.067.935-.682-4.882-1.75-12.39-4.539-12.275-3.844 5.851 1.336 15.01 6.022 20.086.907 1.363-.966 3.762-3.026 1.724-5.14-4.524-11.057-14.002-9.668-20.631 0 0 1.48-7.982-.953-13.293z" style="display:inline;fill:green;fill-opacity:1;stroke:#000;stroke-width:2.091;stroke-linecap:round;stroke-linejoin:round;stroke-miterlimit:4;stroke-dasharray:none;stroke-opacity:1" transform="matrix(-.76005 0 0 .7582 136.347 -.616)"/><g style="fill:#0f0"><path d="M-12.36 260.347c-2.264 11.305-1.012 9.87-.579 23.454.21 1.532-1.62 3.276-3.067.935-.682-4.882-2.28-10.803-5.068-10.688-3.306 14.19.012 15.585 1.77 20.993-.71 2.809-2.471 2.466-3.988.187-6.196-11.055-3.79-23.83-4.878-34.881z" style="fill:#0f0;fill-opacity:1;stroke:#000;stroke-width:2.091;stroke-linecap:round;stroke-linejoin:round;stroke-miterlimit:4;stroke-dasharray:none;stroke-opacity:1" transform="matrix(-.76005 0 0 .7582 67.191 -8.276)"/></g></g><g style="display:inline"><path d="M78.63 250.244c-7.991 6.882-7.773 12.131-8.207 12.095 3.084 8.096 4.397 12.124 7.353 15.737 1.612 1.64-.041 4.003-1.823 2.812-2.32-2.255-11.732-11.885-12.661-16.535 0 0 1.96-8.798-.473-14.11z" style="fill:green;fill-opacity:1;stroke:#000;stroke-width:2.091;stroke-linecap:round;stroke-linejoin:round;stroke-miterlimit:4;stroke-dasharray:none;stroke-opacity:1" transform="matrix(.76005 0 0 .7582 -23.581 -.616)"/><path d="M78.63 250.244c-2.264 11.305-1.013 9.87-.58 23.454.21 1.532-1.62 3.277-3.067.935-.682-4.882-1.75-12.39-4.539-12.275-3.844 5.851 1.336 15.01 6.022 20.086.907 1.363-.966 3.762-3.026 1.724-5.14-4.524-11.057-14.002-9.668-20.631 0 0 1.48-7.982-.953-13.293z" style="display:inline;fill:green;fill-opacity:1;stroke:#000;stroke-width:2.091;stroke-linecap:round;stroke-linejoin:round;stroke-miterlimit:4;stroke-dasharray:none;stroke-opacity:1" transform="matrix(.76005 0 0 .7582 -23.581 -.616)"/><g style="fill:#0f0"><path d="M-12.36 260.347c-2.264 11.305-1.012 9.87-.579 23.454.21 1.532-1.62 3.276-3.067.935-.682-4.882-2.28-10.803-5.068-10.688-3.306 14.19.012 15.585 1.77 20.993-.71 2.809-2.471 2.466-3.988.187-6.196-11.055-3.79-23.83-4.878-34.881z" style="fill:#0f0;fill-opacity:1;stroke:#000;stroke-width:2.091;stroke-linecap:round;stroke-linejoin:round;stroke-miterlimit:4;stroke-dasharray:none;stroke-opacity:1" transform="matrix(.76005 0 0 .7582 45.575 -8.276)"/></g></g></svg>